<svg xmlns="http://www.w3.org/2000/svg" fill="none" viewBox="0 0 960 700"><defs><linearGradient id="a" x1="0" x2="960" y1="0" y2="0" gradientUnits="userSpaceOnUse"><stop offset="0%" stop-color="#1e1b4b"/><stop offset="100%" stop-color="#312e81"/></linearGradient><linearGradient id="d" x1="0" x2="0" y1="0" y2="1"><stop offset="0%" stop-color="#fff7ed"/><stop offset="100%" stop-color="#ffedd5"/></linearGradient><linearGradient id="e" x1="0" x2="0" y1="0" y2="1"><stop offset="0%" stop-color="#f8f8f8"/><stop offset="100%" stop-color="#efefef"/></linearGradient><linearGradient id="f" x1="0" x2="0" y1="0" y2="1"><stop offset="0%" stop-color="#ecfff9"/><stop offset="100%" stop-color="#d1fae5"/></linearGradient><linearGradient id="g" x1="0" x2="0" y1="0" y2="1"><stop offset="0%" stop-color="#ecfdf5"/><stop offset="100%" stop-color="#d1fae5"/></linearGradient><marker id="c" markerHeight="6" markerWidth="8" orient="auto" refX="8" refY="3"><path fill="#94a3b8" d="m0 0 8 3-8 3Z"/></marker><filter id="b" width="108%" height="108%" x="-4%" y="-4%"><feDropShadow dx="0" dy="2" flood-color="#000" flood-opacity=".08" stdDeviation="4"/></filter></defs><rect width="960" height="700" fill="#fff" rx="12"/><rect width="960" height="52" fill="url(#a)" rx="12"/><path fill="url(#a)" d="M0 40h960v12H0z"/><text x="480" y="33" fill="#fff" font-family="'Inter','Segoe UI',Arial,sans-serif" font-size="17" font-weight="700" letter-spacing="2" text-anchor="middle">SYSTEM ARCHITECTURE</text><rect width="240" height="46" x="360" y="68" fill="#f1f5f9" stroke="#cbd5e1" stroke-width="1.5" filter="url(#b)" rx="23"/><text x="480" y="96" fill="#334155" font-family="'Inter','Segoe UI',Arial,sans-serif" font-size="14" font-weight="600" text-anchor="middle">Player / Browser</text><path stroke="#94a3b8" stroke-width="1.5" marker-end="url(#c)" d="M480 114v29"/><rect width="64" height="16" x="448" y="120" fill="#f8fafc" stroke="#e2e8f0" rx="8"/><text x="480" y="131" fill="#94a3b8" font-family="Arial,sans-serif" font-size="8" font-weight="500" text-anchor="middle">SSE / REST</text><rect width="880" height="104" x="40" y="150" fill="#eff6ff" stroke="#93c5fd" stroke-width="1.5" filter="url(#b)" rx="10"/><rect width="84" height="20" x="50" y="155" fill="#3b82f6" rx="4"/><text x="92" y="169" fill="#fff" font-family="Arial,sans-serif" font-size="10" font-weight="700" text-anchor="middle">FRONTEND</text><rect width="190" height="52" x="60" y="185" fill="#fff" stroke="#bfdbfe" stroke-width="1.2" rx="8"/><path fill="#000" d="M85.999 214.484A8.96 8.96 0 0 1 81 216c-4.967 0-9-4.033-9-9s4.033-9 9-9 9 4.033 9 9c0 2.687-1.18 5.1-3.05 6.75l-8.036-10.35H77.4v7.197h1.211v-5.659zm-2.5-6.4 1.2 1.545V203.4h-1.2z"/><text x="98" y="206" fill="#1e293b" font-family="Arial,sans-serif" font-size="13" font-weight="700">Next.js 15</text><text x="98" y="221" fill="#64748b" font-family="Arial,sans-serif" font-size="10">App Router · TypeScript</text><rect width="160" height="52" x="265" y="185" fill="#fff" stroke="#bfdbfe" stroke-width="1.2" rx="8"/><path fill="#61dafb" d="M282.491 207.007a1.49 1.49 0 0 1-1.49 1.491 1.49 1.49 0 0 1-1.492-1.491 1.49 1.49 0 0 1 1.491-1.492 1.49 1.49 0 0 1 1.491 1.492m1.767-7.13c-.898 0-2.073.64-3.26 1.748-1.188-1.102-2.363-1.735-3.26-1.735-.274 0-.523.062-.738.185-.917.53-1.123 2.177-.649 4.246-2.03.627-3.351 1.63-3.351 2.686 0 1.06 1.327 2.065 3.364 2.688-.47 2.076-.26 3.727.659 4.255q.321.186.735.184c.897 0 2.072-.64 3.26-1.75 1.187 1.103 2.363 1.736 3.26 1.736.273 0 .522-.06.737-.184.917-.528 1.123-2.176.65-4.245 2.022-.622 3.343-1.626 3.343-2.684 0-1.06-1.327-2.066-3.364-2.69.47-2.074.26-3.726-.659-4.255a1.45 1.45 0 0 0-.728-.186z"/><text x="302" y="206" fill="#1e293b" font-family="Arial,sans-serif" font-size="13" font-weight="700">React 19</text><text x="302" y="221" fill="#64748b" font-family="Arial,sans-serif" font-size="10">Game State · Hooks</text><rect width="200" height="52" x="440" y="185" fill="#fff" stroke="#bfdbfe" stroke-width="1.2" rx="8"/><path fill="#000" d="M452.285 198a.2.2 0 0 0-.192.249l2.17 8.787.008.03 2.168 8.781a.201.201 0 0 0 .335.096l13.077-12.58a.201.201 0 0 0-.084-.338l-4.338-1.25a.2.2 0 0 0-.092-.026l-8.552-2.463a.2.2 0 0 0-.108-.03l-4.335-1.249a.2.2 0 0 0-.057-.007"/><text x="478" y="206" fill="#1e293b" font-family="Arial,sans-serif" font-size="13" font-weight="700">Three.js + R3F</text><text x="478" y="221" fill="#64748b" font-family="Arial,sans-serif" font-size="10">3D Roundtable Scene</text><rect width="245" height="52" x="655" y="185" fill="#fff" stroke="#bfdbfe" stroke-width="1.2" rx="8"/><path fill="#06b6d4" d="M675.005 202.202q-3.203 0-4.002 3.201 1.2-1.6 2.801-1.2c.609.152 1.044.593 1.526 1.083.785.796 1.693 1.718 3.677 1.718q3.201 0 4.002-3.202-1.2 1.602-2.802 1.201c-.609-.152-1.044-.594-1.526-1.083-.784-.797-1.692-1.718-3.676-1.718m-4.002 4.802q-3.203 0-4.002 3.202 1.2-1.602 2.801-1.201c.609.152 1.044.594 1.526 1.083.785.797 1.693 1.718 3.677 1.718q3.201 0 4.002-3.201-1.2 1.6-2.802 1.2c-.609-.152-1.044-.593-1.526-1.083-.784-.796-1.692-1.718-3.676-1.718"/><text x="688" y="206" fill="#1e293b" font-family="Arial,sans-serif" font-size="13" font-weight="700">Tailwind CSS 4</text><text x="688" y="221" fill="#64748b" font-family="Arial,sans-serif" font-size="10">Responsive UI · Dark Themes</text><path stroke="#94a3b8" stroke-width="1.5" marker-end="url(#c)" d="M480 254v29"/><rect width="78" height="16" x="441" y="260" fill="#f8fafc" stroke="#e2e8f0" rx="8"/><text x="480" y="271" fill="#94a3b8" font-family="Arial,sans-serif" font-size="8" font-weight="500" text-anchor="middle">REST + SSE</text><rect width="880" height="200" x="40" y="290" fill="#f5f3ff" stroke="#c4b5fd" stroke-width="1.5" filter="url(#b)" rx="10"/><rect width="175" height="20" x="50" y="295" fill="#7c3aed" rx="4"/><path fill="#fff" d="M62.996 298.023c-3.864 0-6.996 3.121-6.996 6.972s3.132 6.975 6.996 6.974 6.997-3.122 6.996-6.974c0-3.85-3.132-6.973-6.996-6.972m-.483 3.157h4.401l-4.42 3.106h3.022l-6.438 4.525z"/><text x="80" y="309" fill="#fff" font-family="Arial,sans-serif" font-size="10" font-weight="700">BACKEND · Python 3.12 · FastAPI</text><rect width="260" height="50" x="60" y="328" fill="#fff" stroke="#ddd6fe" stroke-width="1.2" rx="8"/><rect width="28" height="28" x="70" y="335" fill="#7c3aed" rx="6"/><g transform="translate(73 338)scale(.917)"><path fill="#fff" fill-rule="evenodd" d="M12.22 2h-.44a2 2 0 0 0-2 2v.18a2 2 0 0 1-1 1.73l-.43.25a2 2 0 0 1-2 0l-.15-.08a2 2 0 0 0-2.73.73l-.22.38a2 2 0 0 0 .73 2.73l.15.1a2 2 0 0 1 1 1.72v.51a2 2 0 0 1-1 1.74l-.15.09a2 2 0 0 0-.73 2.73l.22.38a2 2 0 0 0 2.73.73l.15-.08a2 2 0 0 1 2 0l.43.25a2 2 0 0 1 1 1.73V20a2 2 0 0 0 2 2h.44a2 2 0 0 0 2-2v-.18a2 2 0 0 1 1-1.73l.43-.25a2 2 0 0 1 2 0l.15.08a2 2 0 0 0 2.73-.73l.22-.39a2 2 0 0 0-.73-2.73l-.15-.08a2 2 0 0 1-1-1.74v-.5a2 2 0 0 1 1-1.74l.15-.09a2 2 0 0 0 .73-2.73l-.22-.38a2 2 0 0 0-2.73-.73l-.15.08a2 2 0 0 1-2 0l-.43-.25a2 2 0 0 1-1-1.73V4a2 2 0 0 0-2-2"/><circle cx="12" cy="12" r="4" fill="#7c3aed"/></g><text x="106" y="349" fill="#1e293b" font-family="Arial,sans-serif" font-size="13" font-weight="700">Orchestrator</text><text x="106" y="365" fill="#64748b" font-family="Arial,sans-serif" font-size="10">Session + Phase Control + SSE</text><rect width="260" height="50" x="340" y="328" fill="#fff" stroke="#ddd6fe" stroke-width="1.2" rx="8"/><rect width="28" height="28" x="350" y="335" fill="#7c3aed" rx="6"/><path fill="#fff" d="m354.834 342.668 2.751 11.004h12.838l2.751-11.004-4.585 3.668-4.585-3.668-4.585 3.668z"/><path stroke="#fff" stroke-linecap="round" stroke-width="1.834" d="M354.834 357.34h18.34"/><text x="386" y="349" fill="#1e293b" font-family="Arial,sans-serif" font-size="13" font-weight="700">Game Master</text><text x="386" y="365" fill="#64748b" font-family="Arial,sans-serif" font-size="10">Narration + Tension + Pacing</text><rect width="280" height="50" x="620" y="328" fill="#fff" stroke="#ddd6fe" stroke-width="1.2" rx="8"/><rect width="28" height="28" x="630" y="335" fill="#7c3aed" rx="6"/><path fill="#fff" d="M644.004 339.834a6.42 6.42 0 0 0-6.419 6.419 6.42 6.42 0 0 0 2.751 5.264v2.072a1.834 1.834 0 0 0 1.834 1.834h3.668a1.834 1.834 0 0 0 1.834-1.834v-2.072a6.42 6.42 0 0 0 2.751-5.264 6.42 6.42 0 0 0-6.419-6.419"/><path stroke="#fff" stroke-linecap="round" stroke-width="1.834" d="M641.253 357.257h5.502"/><text x="666" y="349" fill="#1e293b" font-family="Arial,sans-serif" font-size="13" font-weight="700">Character Agent</text><text x="666" y="365" fill="#64748b" font-family="Arial,sans-serif" font-size="10">Personality-Driven AI Engine</text><rect width="260" height="50" x="60" y="392" fill="#fff" stroke="#ddd6fe" stroke-width="1.2" rx="8"/><rect width="28" height="28" x="70" y="399" fill="#a78bfa" rx="6"/><path fill="#fff" d="M85.838 403.834h-7.336a1.834 1.834 0 0 0-1.834 1.834v14.672a1.834 1.834 0 0 0 1.834 1.834h11.004a1.834 1.834 0 0 0 1.834-1.834v-11.004z"/><path stroke="#a78bfa" stroke-linecap="round" stroke-linejoin="round" stroke-width="1.376" d="M85.838 403.834v5.502h5.502"/><path stroke="#a78bfa" stroke-linecap="round" stroke-width="1.376" d="M87.672 413.921h-7.336m7.336 3.668h-7.336m1.834-7.336h-1.834"/><text x="106" y="413" fill="#1e293b" font-family="Arial,sans-serif" font-size="13" font-weight="700">Document Engine</text><text x="106" y="429" fill="#64748b" font-family="Arial,sans-serif" font-size="10">PDF / Text → WorldModel</text><rect width="260" height="50" x="340" y="392" fill="#fff" stroke="#ddd6fe" stroke-width="1.2" rx="8"/><rect width="28" height="28" x="350" y="399" fill="#a78bfa" rx="6"/><path fill="#fff" d="M366.48 407.777a.917.917 0 0 0 0 1.284l1.467 1.467a.917.917 0 0 0 1.284 0l3.457-3.457a5.502 5.502 0 0 1-7.281 7.281l-6.336 6.336a1.945 1.945 0 0 1-2.751-2.75l6.336-6.337a5.502 5.502 0 0 1 7.281-7.281l-3.448 3.448z"/><text x="386" y="413" fill="#1e293b" font-family="Arial,sans-serif" font-size="13" font-weight="700">Character Factory</text><text x="386" y="429" fill="#64748b" font-family="Arial,sans-serif" font-size="10">Multi-Trait Generation</text><rect width="280" height="50" x="620" y="392" fill="#fff" stroke="#ddd6fe" stroke-width="1.2" rx="8"/><rect width="28" height="28" x="630" y="399" fill="#a78bfa" rx="6"/><path fill="#fff" d="M650.826 409.198a.94.94 0 0 0 .265.806l1.437 1.437a2.205 2.205 0 0 1 0 3.126l-1.477 1.477a.9.9 0 0 1-.767.253c-.431-.064-.736-.44-.888-.848a2.293 2.293 0 1 0-2.947 2.947c.409.152.784.456.848.888a.9.9 0 0 1-.253.767l-1.477 1.477a2.2 2.2 0 0 1-1.563.648 2.2 2.2 0 0 1-1.563-.648l-1.437-1.437a.94.94 0 0 0-.805-.266c-.452.068-.77.462-.935.887a2.293 2.293 0 1 1-2.968-2.968c.425-.165.82-.483.886-.935a.94.94 0 0 0-.265-.805l-1.437-1.437a2.2 2.2 0 0 1-.648-1.563c0-.566.217-1.132.648-1.563l1.399-1.399a.99.99 0 0 1 .84-.278c.473.07.805.484.985.926a2.293 2.293 0 1 0 2.988-2.988c-.442-.18-.855-.512-.926-.984a.98.98 0 0 1 .278-.84l1.398-1.4a2.2 2.2 0 0 1 1.562-.646c.566 0 1.132.217 1.563.648l1.437 1.437c.211.211.51.31.805.266.452-.068.77-.462.935-.887a2.293 2.293 0 1 1 2.968 2.968c-.425.165-.82.483-.886.935z"/><text x="666" y="413" fill="#1e293b" font-family="Arial,sans-serif" font-size="13" font-weight="700">Skill Loader</text><text x="666" y="429" fill="#64748b" font-family="Arial,sans-serif" font-size="10">7 YAML Cognitive Modules</text><rect width="78" height="22" x="810" y="398" fill="#fdf2f8" stroke="#f9a8d4" rx="11"/><path fill="#e92063" d="m831.892 412.55-2.821-3.913-4.567-6.334c-.233-.32-.768-.32-.999 0l-4.566 6.333-2.823 3.914a.617.617 0 0 0 .307.945l7.389 2.418h.001a.6.6 0 0 0 .382 0h.001l7.388-2.418a.61.61 0 0 0 .394-.395.61.61 0 0 0-.087-.55z"/><text x="840" y="413" fill="#e92063" font-family="Arial,sans-serif" font-size="8" font-weight="600">Pydantic</text><path stroke="#fa520f" stroke-dasharray="4,3" stroke-width="1.5" d="m190 490-35 40"/><path stroke="#000" stroke-dasharray="4,3" stroke-width="1.5" d="m400 490-20 40"/><path stroke="#00e9a3" stroke-dasharray="4,3" stroke-width="1.5" d="m620 490 10 40"/><path stroke="#3fcf8e" stroke-dasharray="4,3" stroke-width="1.5" d="m780 490 60 40"/><text x="480" y="520" fill="#94a3b8" font-family="Arial,sans-serif" font-size="10" font-weight="600" letter-spacing="2" text-anchor="middle">EXTERNAL SERVICES</text><rect width="210" height="80" x="40" y="538" fill="url(#d)" stroke="#fa520f" stroke-width="2" filter="url(#b)" rx="10"/><path fill="#fa520f" d="M69.143 551.429v3.428h-3.429v3.429h-3.428v-3.429h-3.429v-3.427H55.43v13.714H52v3.428h10.286v-3.428h-3.429v-3.429h3.429v3.429h3.429v-3.429h3.428v3.429h-3.428v3.428H76v-3.428h-3.43v-13.715z"/><text x="80" y="560" fill="#1e293b" font-family="Arial,sans-serif" font-size="14" font-weight="700">Mistral AI</text><text x="80" y="576" fill="#9a3412" font-family="Arial,sans-serif" font-size="10">mistral-large-latest</text><text x="52" y="606" fill="#78350f" font-family="Arial,sans-serif" font-size="9">Dialogue · Voting · World Gen</text><rect width="210" height="80" x="270" y="538" fill="url(#e)" stroke="#1a1a2e" stroke-width="2" filter="url(#b)" rx="10"/><path fill="#000" d="M285.835 550v19.992h4.108V550zm8.214 0v19.992h4.108V550z"/><text x="308" y="560" fill="#1e293b" font-family="Arial,sans-serif" font-size="14" font-weight="700">ElevenLabs</text><text x="308" y="576" fill="#374151" font-family="Arial,sans-serif" font-size="10">TTS + Scribe STT</text><text x="282" y="606" fill="#374151" font-family="Arial,sans-serif" font-size="9">Voice Synthesis · Transcription</text><rect width="210" height="80" x="500" y="538" fill="url(#f)" stroke="#00e9a3" stroke-width="2" filter="url(#b)" rx="10"/><path fill="#00e9a3" d="M524.657 548a9.352 9.352 0 0 0-6.612 15.963 4.676 4.676 0 0 0 6.612-6.612l-1.653 1.653a2.338 2.338 0 0 1-3.306 3.306 7.014 7.014 0 0 1 9.918-9.918l1.654-1.654a9.32 9.32 0 0 0-6.613-2.738m-1.653 11.004a2.338 2.338 0 0 1 3.306-3.306 7.014 7.014 0 0 1-9.918 9.918l-1.654 1.654a9.352 9.352 0 0 0 13.225-13.225 4.66 4.66 0 0 0-3.306-1.369 4.676 4.676 0 0 0-3.306 7.98z"/><text x="540" y="560" fill="#1e293b" font-family="Arial,sans-serif" font-size="14" font-weight="700">Upstash</text><text x="540" y="576" fill="#065f46" font-family="Arial,sans-serif" font-size="10">Serverless Redis</text><text x="512" y="606" fill="#064e3b" font-family="Arial,sans-serif" font-size="9">Session State · Agent Memory</text><rect width="190" height="80" x="730" y="538" fill="url(#g)" stroke="#3fcf8e" stroke-width="2" filter="url(#b)" rx="10"/><path fill="#3fcf8e" d="M752.912 548.95c-.013-.904-1.155-1.293-1.718-.584L742.7 559.05c-1.004 1.263-.105 3.122 1.508 3.122h8.784l.104 6.887c.012.903 1.154 1.291 1.717.583l8.493-10.686c1.003-1.26.104-3.12-1.508-3.12h-8.842z"/><text x="770" y="560" fill="#1e293b" font-family="Arial,sans-serif" font-size="14" font-weight="700">Supabase</text><text x="770" y="576" fill="#065f46" font-family="Arial,sans-serif" font-size="10">PostgreSQL</text><text x="742" y="606" fill="#064e3b" font-family="Arial,sans-serif" font-size="9">Analytics · Long-term Data</text><path stroke="#e2e8f0" d="M40 650h880"/><text x="480" y="675" fill="#94a3b8" font-family="Arial,sans-serif" font-size="10" text-anchor="middle">COUNCIL — AI Social Deduction Game · Mistral AI Worldwide Hackathon 2026</text></svg>