<svg xmlns="http://www.w3.org/2000/svg" fill="none" viewBox="0 0 960 520">
<defs>
<linearGradient id="a" x1="0" x2="960" y1="0" y2="0" gradientUnits="userSpaceOnUse"><stop offset="0%" stop-color="#1e1b4b"/><stop offset="100%" stop-color="#312e81"/></linearGradient>
<filter id="b" width="108%" height="108%" x="-4%" y="-4%"><feDropShadow dx="0" dy="2" flood-color="#000" flood-opacity=".08" stdDeviation="4"/></filter>
<marker id="c" markerHeight="6" markerWidth="8" orient="auto" refX="8" refY="3"><path fill="#94a3b8" d="m0 0 8 3-8 3Z"/></marker>
<marker id="m" markerHeight="6" markerWidth="8" orient="auto" refX="8" refY="3"><path fill="#fa520f" d="m0 0 8 3-8 3Z"/></marker>
</defs>

<rect width="960" height="520" fill="#fff" rx="12"/>
<rect width="960" height="56" fill="url(#a)" rx="12"/>
<path fill="url(#a)" d="M0 44h960v12H0z"/>
<text x="480" y="30" fill="#fff" font-family="'Inter','Segoe UI',Arial,sans-serif" font-size="17" font-weight="700" letter-spacing="2" text-anchor="middle">DOCUMENT-TO-GAME PIPELINE</text>
<text x="480" y="48" fill="#c4b5fd" font-family="'Inter','Segoe UI',Arial,sans-serif" font-size="10" text-anchor="middle">Any document becomes a living social deduction game</text>

<!-- Stage 1: INPUT -->
<rect width="140" height="120" x="30" y="80" fill="#f1f5f9" stroke="#cbd5e1" stroke-width="1.5" filter="url(#b)" rx="10"/>
<rect width="50" height="18" x="40" y="88" fill="#64748b" rx="4"/>
<text x="65" y="101" fill="#fff" font-family="Arial,sans-serif" font-size="8" font-weight="700" text-anchor="middle">INPUT</text>
<g stroke="#475569" stroke-linecap="round" stroke-linejoin="round" stroke-width="1.5" transform="translate(78 108)">
<path d="M0 0h10.5a1.5 1.5 0 0 1 1.5 1.5v15a1.5 1.5 0 0 1-1.5 1.5h-9A1.5 1.5 0 0 1 0 16.5V0Z"/>
<path d="M6 0v4.5h4.5"/>
</g>
<text x="100" y="143" fill="#1e293b" font-family="Arial,sans-serif" font-size="12" font-weight="700" text-anchor="middle">Upload</text>
<text x="100" y="158" fill="#64748b" font-family="Arial,sans-serif" font-size="9" text-anchor="middle">PDF / Text / Story</text>
<text x="100" y="171" fill="#94a3b8" font-family="Arial,sans-serif" font-size="8" text-anchor="middle">MD / DOC / Paste</text>
<text x="100" y="191" fill="#94a3b8" font-family="Arial,sans-serif" font-size="8" text-anchor="middle">or Built-in Scenario</text>

<path stroke="#94a3b8" stroke-width="1.5" marker-end="url(#c)" d="M170 140h20"/>

<!-- Stage 2: OCR -->
<rect width="200" height="120" x="190" y="80" fill="#fff7ed" stroke="#fa520f" stroke-width="2" filter="url(#b)" rx="10"/>
<rect width="110" height="18" x="200" y="88" fill="#fa520f" rx="4"/>
<path fill="#fff" d="M210.143 90.429v1.143h-1.143v1.143h-1.143v-1.143h-1.143v-1.143h-1.143v4.571h-1.143v1.143h3.429v-1.143h-1.143v-1.143h1.143v1.143h1.143v-1.143h1.143v1.143h-1.143v1.143h3.428v-1.143h-1.143v-4.571z" transform="scale(.8) translate(6 2)"/>
<text x="241" y="101" fill="#fff" font-family="Arial,sans-serif" font-size="8" font-weight="700">OCR &amp; EXTRACTION</text>
<text x="290" y="120" fill="#1e293b" font-family="Arial,sans-serif" font-size="12" font-weight="700" text-anchor="middle">mistral-ocr-latest</text>
<text x="290" y="137" fill="#9a3412" font-family="Arial,sans-serif" font-size="9" text-anchor="middle">Adaptive Document Processing</text>

<rect width="170" height="18" x="205" y="148" fill="#fff" stroke="#fdba74" rx="4"/>
<text x="290" y="161" fill="#78350f" font-family="Arial,sans-serif" font-size="8" text-anchor="middle">Small (&lt;50K) → Direct OCR</text>

<rect width="170" height="18" x="205" y="170" fill="#fff" stroke="#fdba74" rx="4"/>
<text x="290" y="183" fill="#78350f" font-family="Arial,sans-serif" font-size="8" text-anchor="middle">Large (&gt;120K) → Chunk → Summarize</text>

<path stroke="#fa520f" stroke-width="1.5" marker-end="url(#m)" d="M390 140h20"/>

<!-- Stage 3: WORLD GEN -->
<rect width="200" height="120" x="410" y="80" fill="#fff7ed" stroke="#fa520f" stroke-width="2" filter="url(#b)" rx="10"/>
<rect width="130" height="18" x="420" y="88" fill="#fa520f" rx="4"/>
<text x="485" y="101" fill="#fff" font-family="Arial,sans-serif" font-size="8" font-weight="700" text-anchor="middle">WORLD GENERATION</text>
<text x="510" y="120" fill="#1e293b" font-family="Arial,sans-serif" font-size="12" font-weight="700" text-anchor="middle">mistral-large-latest</text>
<text x="510" y="137" fill="#9a3412" font-family="Arial,sans-serif" font-size="9" text-anchor="middle">Structured JSON → WorldModel</text>

<rect width="84" height="16" x="420" y="148" fill="#fff" stroke="#fdba74" rx="3"/>
<text x="462" y="160" fill="#78350f" font-family="Arial,sans-serif" font-size="7.5" text-anchor="middle">Setting &amp; Era</text>
<rect width="84" height="16" x="510" y="148" fill="#fff" stroke="#fdba74" rx="3"/>
<text x="552" y="160" fill="#78350f" font-family="Arial,sans-serif" font-size="7.5" text-anchor="middle">Factions</text>
<rect width="84" height="16" x="420" y="168" fill="#fff" stroke="#fdba74" rx="3"/>
<text x="462" y="180" fill="#78350f" font-family="Arial,sans-serif" font-size="7.5" text-anchor="middle">Win Conditions</text>
<rect width="84" height="16" x="510" y="168" fill="#fff" stroke="#fdba74" rx="3"/>
<text x="552" y="180" fill="#78350f" font-family="Arial,sans-serif" font-size="7.5" text-anchor="middle">Conflicts</text>

<rect width="80" height="16" x="467" y="190" fill="#fdf2f8" stroke="#f9a8d4" rx="8"/>
<text x="507" y="201" fill="#e92063" font-family="Arial,sans-serif" font-size="7" font-weight="600" text-anchor="middle">Pydantic v2</text>

<path stroke="#fa520f" stroke-width="1.5" marker-end="url(#m)" d="M610 140h20"/>

<!-- Stage 4: CHARACTER FACTORY -->
<rect width="180" height="120" x="630" y="80" fill="#f5f3ff" stroke="#7c3aed" stroke-width="2" filter="url(#b)" rx="10"/>
<rect width="140" height="18" x="640" y="88" fill="#7c3aed" rx="4"/>
<text x="710" y="101" fill="#fff" font-family="Arial,sans-serif" font-size="8" font-weight="700" text-anchor="middle">CHARACTER FACTORY</text>
<text x="720" y="120" fill="#1e293b" font-family="Arial,sans-serif" font-size="12" font-weight="700" text-anchor="middle">5-8 Characters</text>
<text x="720" y="137" fill="#5b21b6" font-family="Arial,sans-serif" font-size="9" text-anchor="middle">mistral-large-latest · 3 retries</text>

<rect width="150" height="14" x="645" y="148" fill="#f5f3ff" stroke="#c4b5fd" rx="3"/>
<text x="720" y="159" fill="#5b21b6" font-family="Arial,sans-serif" font-size="7" text-anchor="middle">Public Persona + Secret Role</text>
<rect width="150" height="14" x="645" y="165" fill="#f5f3ff" stroke="#c4b5fd" rx="3"/>
<text x="720" y="176" fill="#5b21b6" font-family="Arial,sans-serif" font-size="7" text-anchor="middle">Big Five + MBTI + Sims (25pt)</text>
<rect width="150" height="14" x="645" y="182" fill="#f5f3ff" stroke="#c4b5fd" rx="3"/>
<text x="720" y="193" fill="#5b21b6" font-family="Arial,sans-serif" font-size="7" text-anchor="middle">Mind Mirror (4 Leary Planes)</text>

<path stroke="#7c3aed" stroke-width="1.5" marker-end="url(#c)" d="M810 140h20"/>

<!-- Stage 5: GAME SESSION -->
<rect width="110" height="120" x="830" y="80" fill="#eff6ff" stroke="#3b82f6" stroke-width="2" filter="url(#b)" rx="10"/>
<rect width="90" height="18" x="840" y="88" fill="#3b82f6" rx="4"/>
<text x="885" y="101" fill="#fff" font-family="Arial,sans-serif" font-size="8" font-weight="700" text-anchor="middle">GAME</text>
<text x="885" y="120" fill="#1e293b" font-family="Arial,sans-serif" font-size="11" font-weight="700" text-anchor="middle">Session</text>
<text x="885" y="137" fill="#1d4ed8" font-family="Arial,sans-serif" font-size="8" text-anchor="middle">Created</text>
<text x="885" y="155" fill="#64748b" font-family="Arial,sans-serif" font-size="8" text-anchor="middle">Roles assigned</text>
<text x="885" y="168" fill="#64748b" font-family="Arial,sans-serif" font-size="8" text-anchor="middle">Skills injected</text>
<text x="885" y="181" fill="#64748b" font-family="Arial,sans-serif" font-size="8" text-anchor="middle">3D Scene loaded</text>

<!-- Personality Layers Detail -->
<text x="40" y="240" fill="#1e293b" font-family="'Inter','Segoe UI',Arial,sans-serif" font-size="14" font-weight="700">Character Personality Layers</text>
<text x="280" y="240" fill="#94a3b8" font-family="Arial,sans-serif" font-size="10">Each character is a multi-dimensional psychological model</text>

<rect width="880" height="200" x="40" y="255" fill="#fafafa" stroke="#e2e8f0" stroke-width="1.5" filter="url(#b)" rx="10"/>

<!-- Layer 1 -->
<rect width="168" height="165" x="52" y="270" fill="#fef2f2" stroke="#fca5a5" stroke-width="1.2" rx="8"/>
<rect width="148" height="18" x="62" y="278" fill="#ef4444" rx="4"/>
<text x="136" y="291" fill="#fff" font-family="Arial,sans-serif" font-size="8" font-weight="700" text-anchor="middle">STRATEGIC BRAIN</text>
<text x="64" y="310" fill="#7f1d1d" font-family="Arial,sans-serif" font-size="9" font-weight="600">Hidden Role</text>
<text x="64" y="325" fill="#991b1b" font-family="Arial,sans-serif" font-size="8">Werewolf / Seer / Doctor</text>
<text x="64" y="340" fill="#7f1d1d" font-family="Arial,sans-serif" font-size="9" font-weight="600">Faction &amp; Win Condition</text>
<text x="64" y="355" fill="#991b1b" font-family="Arial,sans-serif" font-size="8">Good vs Evil alignment</text>
<text x="64" y="370" fill="#7f1d1d" font-family="Arial,sans-serif" font-size="9" font-weight="600">Behavioral Rules</text>
<text x="64" y="385" fill="#991b1b" font-family="Arial,sans-serif" font-size="8">"Never reveal your role"</text>
<text x="64" y="400" fill="#991b1b" font-family="Arial,sans-serif" font-size="8">"Deflect suspicion"</text>
<text x="64" y="418" fill="#dc2626" font-family="Arial,sans-serif" font-size="7" font-weight="600">HIDDEN from all agents</text>

<!-- Layer 2 -->
<rect width="168" height="165" x="230" y="270" fill="#eff6ff" stroke="#93c5fd" stroke-width="1.2" rx="8"/>
<rect width="148" height="18" x="240" y="278" fill="#3b82f6" rx="4"/>
<text x="314" y="291" fill="#fff" font-family="Arial,sans-serif" font-size="8" font-weight="700" text-anchor="middle">CHARACTER HEART</text>
<text x="242" y="310" fill="#1e3a5f" font-family="Arial,sans-serif" font-size="9" font-weight="600">Public Persona</text>
<text x="242" y="325" fill="#1d4ed8" font-family="Arial,sans-serif" font-size="8">Name, speaking style</text>
<text x="242" y="340" fill="#1e3a5f" font-family="Arial,sans-serif" font-size="9" font-weight="600">Want &amp; Method</text>
<text x="242" y="355" fill="#1d4ed8" font-family="Arial,sans-serif" font-size="8">Core goal + strategy</text>
<text x="242" y="370" fill="#1e3a5f" font-family="Arial,sans-serif" font-size="9" font-weight="600">Moral Values</text>
<text x="242" y="385" fill="#1d4ed8" font-family="Arial,sans-serif" font-size="8">Decision style, deep secret</text>
<text x="242" y="418" fill="#2563eb" font-family="Arial,sans-serif" font-size="7" font-weight="600">PUBLIC persona</text>

<!-- Layer 3 -->
<rect width="168" height="165" x="408" y="270" fill="#f5f3ff" stroke="#c4b5fd" stroke-width="1.2" rx="8"/>
<rect width="148" height="18" x="418" y="278" fill="#7c3aed" rx="4"/>
<text x="492" y="291" fill="#fff" font-family="Arial,sans-serif" font-size="8" font-weight="700" text-anchor="middle">PERSONALITY DNA</text>
<text x="420" y="310" fill="#4c1d95" font-family="Arial,sans-serif" font-size="9" font-weight="600">Big Five</text>
<text x="420" y="325" fill="#5b21b6" font-family="Arial,sans-serif" font-size="8">O / C / E / A / N scores</text>
<text x="420" y="340" fill="#4c1d95" font-family="Arial,sans-serif" font-size="9" font-weight="600">MBTI</text>
<text x="420" y="355" fill="#5b21b6" font-family="Arial,sans-serif" font-size="8">16 personality types</text>
<text x="420" y="370" fill="#4c1d95" font-family="Arial,sans-serif" font-size="9" font-weight="600">Sims Traits (25-pt budget)</text>
<text x="420" y="385" fill="#5b21b6" font-family="Arial,sans-serif" font-size="8">neat / outgoing / active</text>
<text x="420" y="400" fill="#4c1d95" font-family="Arial,sans-serif" font-size="9" font-weight="600">Mind Mirror (4 planes)</text>
<text x="420" y="415" fill="#5b21b6" font-family="Arial,sans-serif" font-size="8">bio / emotional / mental / social</text>

<!-- Layer 4 -->
<rect width="168" height="165" x="586" y="270" fill="#ecfdf5" stroke="#6ee7b7" stroke-width="1.2" rx="8"/>
<rect width="148" height="18" x="596" y="278" fill="#10b981" rx="4"/>
<text x="670" y="291" fill="#fff" font-family="Arial,sans-serif" font-size="8" font-weight="700" text-anchor="middle">DYNAMIC STATE</text>
<text x="598" y="310" fill="#064e3b" font-family="Arial,sans-serif" font-size="9" font-weight="600">Emotions (6 axes)</text>
<text x="598" y="325" fill="#047857" font-family="Arial,sans-serif" font-size="8">happy / anger / fear</text>
<text x="598" y="340" fill="#047857" font-family="Arial,sans-serif" font-size="8">trust / energy / curiosity</text>
<text x="598" y="358" fill="#064e3b" font-family="Arial,sans-serif" font-size="9" font-weight="600">Memory (3 tiers)</text>
<text x="598" y="373" fill="#047857" font-family="Arial,sans-serif" font-size="8">STM · Episodic · Semantic</text>
<text x="598" y="391" fill="#064e3b" font-family="Arial,sans-serif" font-size="9" font-weight="600">Relationships</text>
<text x="598" y="406" fill="#047857" font-family="Arial,sans-serif" font-size="8">closeness (0-1) + trust (-1,1)</text>
<text x="598" y="420" fill="#059669" font-family="Arial,sans-serif" font-size="7" font-weight="600">Evolves every interaction</text>

<!-- Layer 5 -->
<rect width="168" height="165" x="764" y="270" fill="#f0fdf4" stroke="#86efac" stroke-width="1.2" rx="8"/>
<rect width="148" height="18" x="774" y="278" fill="#16a34a" rx="4"/>
<text x="848" y="291" fill="#fff" font-family="Arial,sans-serif" font-size="8" font-weight="700" text-anchor="middle">SKILL INJECTIONS</text>
<text x="776" y="310" fill="#14532d" font-family="Arial,sans-serif" font-size="9" font-weight="600">7 YAML Modules</text>
<text x="776" y="325" fill="#166534" font-family="Arial,sans-serif" font-size="8">Priority-sorted injection</text>
<text x="776" y="343" fill="#14532d" font-family="Arial,sans-serif" font-size="9" font-weight="600">Faction-Filtered</text>
<text x="776" y="358" fill="#166534" font-family="Arial,sans-serif" font-size="8">Evil vs Good variants</text>
<text x="776" y="376" fill="#14532d" font-family="Arial,sans-serif" font-size="9" font-weight="600">Dependency-Resolved</text>
<text x="776" y="391" fill="#166534" font-family="Arial,sans-serif" font-size="8">Automatic prerequisite</text>
<text x="776" y="409" fill="#14532d" font-family="Arial,sans-serif" font-size="9" font-weight="600">7 Injection Targets</text>
<text x="776" y="424" fill="#166534" font-family="Arial,sans-serif" font-size="8">Per-context augmentation</text>

<!-- Bottom feature badges -->
<rect width="155" height="24" x="55" y="470" fill="#fff7ed" stroke="#fdba74" rx="12"/>
<text x="132" y="486" fill="#9a3412" font-family="Arial,sans-serif" font-size="9" font-weight="600" text-anchor="middle">mistral-ocr-latest</text>

<rect width="155" height="24" x="225" y="470" fill="#fff7ed" stroke="#fdba74" rx="12"/>
<text x="302" y="486" fill="#9a3412" font-family="Arial,sans-serif" font-size="9" font-weight="600" text-anchor="middle">mistral-large-latest</text>

<rect width="130" height="24" x="395" y="470" fill="#fdf2f8" stroke="#f9a8d4" rx="12"/>
<text x="460" y="486" fill="#e92063" font-family="Arial,sans-serif" font-size="9" font-weight="600" text-anchor="middle">Pydantic v2</text>

<rect width="140" height="24" x="540" y="470" fill="#f0fdf4" stroke="#86efac" rx="12"/>
<text x="610" y="486" fill="#166534" font-family="Arial,sans-serif" font-size="9" font-weight="600" text-anchor="middle">7 Skill Injections</text>

<rect width="140" height="24" x="695" y="470" fill="#eff6ff" stroke="#93c5fd" rx="12"/>
<text x="765" y="486" fill="#1d4ed8" font-family="Arial,sans-serif" font-size="9" font-weight="600" text-anchor="middle">SSE Streaming</text>

<text x="480" y="510" fill="#94a3b8" font-family="'Inter','Segoe UI',Arial,sans-serif" font-size="10" text-anchor="middle">COUNCIL — Document-to-Game Pipeline · Mistral AI Worldwide Hackathon 2026</text>
</svg>