<svg xmlns="http://www.w3.org/2000/svg" fill="none" viewBox="0 0 960 280"><defs><linearGradient id="a" x1="0" x2="960" y1="0" y2="0" gradientUnits="userSpaceOnUse"><stop offset="0%" stop-color="#fafafa"/><stop offset="50%" stop-color="#fff"/><stop offset="100%" stop-color="#fafafa"/></linearGradient><marker id="c" markerHeight="5" markerWidth="7" orient="auto" refX="7" refY="2.5"><path fill="#94a3b8" d="m0 0 7 2.5L0 5Z"/></marker><filter id="b" width="108%" height="108%" x="-4%" y="-4%"><feDropShadow dx="0" dy="2" flood-color="#000" flood-opacity=".08" stdDeviation="3"/></filter></defs><rect width="960" height="280" fill="url(#a)" rx="12"/><text x="480" y="30" fill="#1e293b" font-family="Arial, Helvetica, sans-serif" font-size="16" font-weight="700" letter-spacing="1" text-anchor="middle">GAME FLOW</text><text x="480" y="48" fill="#94a3b8" font-family="Arial, Helvetica, sans-serif" font-size="10" text-anchor="middle">From document upload to victory — a complete game lifecycle</text><text x="40" y="78" fill="#94a3b8" font-family="Arial, Helvetica, sans-serif" font-size="9" font-weight="600" letter-spacing="1.5">SETUP</text><rect width="115" height="65" x="40" y="88" fill="#f1f5f9" stroke="#cbd5e1" stroke-width="1.5" filter="url(#b)" rx="10"/><g stroke="#475569" stroke-linecap="round" stroke-linejoin="round" stroke-width="1.5"><path d="M98.5 93.5h-6A1.5 1.5 0 0 0 91 95v12a1.5 1.5 0 0 0 1.5 1.5h9a1.5 1.5 0 0 0 1.5-1.5v-9z"/><path d="M98.5 93.5V98h4.5m-6 7.5V101m-2.25 2.25L97 101l2.25 2.25"/></g><text x="97" y="126" fill="#1e293b" font-family="Arial, Helvetica, sans-serif" font-size="11" font-weight="700" text-anchor="middle">Upload</text><text x="97" y="142" fill="#64748b" font-family="Arial, Helvetica, sans-serif" font-size="8" text-anchor="middle">PDF / Text / Scenario</text><path stroke="#94a3b8" stroke-width="1.5" marker-end="url(#c)" d="M155 120h25"/><rect width="115" height="65" x="180" y="88" fill="#fff7ed" stroke="#fdba74" stroke-width="1.5" filter="url(#b)" rx="10"/><path fill="#fa520f" d="M236.434 97.287v2.287h-2.287v2.287h-2.286v-2.287h-2.287v-2.286h-2.286v9.147H225v2.287h6.86v-2.287h-2.286v-2.287h2.287v2.287h2.287v-2.287h2.286v2.287h-2.286v2.287h6.86v-2.287h-2.288v-9.148z"/><text x="237" y="126" fill="#1e293b" font-family="Arial, Helvetica, sans-serif" font-size="11" font-weight="700" text-anchor="middle">Generate</text><text x="237" y="142" fill="#9a3412" font-family="Arial, Helvetica, sans-serif" font-size="8" text-anchor="middle">Mistral AI → World</text><path stroke="#94a3b8" stroke-width="1.5" marker-end="url(#c)" d="M295 120h25"/><rect width="115" height="65" x="320" y="88" fill="#eff6ff" stroke="#93c5fd" stroke-width="1.5" filter="url(#b)" rx="10"/><g stroke="#3b82f6" stroke-linecap="round" stroke-linejoin="round" stroke-width="2" transform="matrix(.75 0 0 .75 368 92)"><path d="M16 21v-2a4 4 0 0 0-4-4H6a4 4 0 0 0-4 4v2"/><circle cx="9" cy="7" r="4"/><path d="M22 21v-2a4 4 0 0 0-3-3.87m-3-12a4 4 0 0 1 0 7.75"/></g><text x="377" y="126" fill="#1e293b" font-family="Arial, Helvetica, sans-serif" font-size="11" font-weight="700" text-anchor="middle">Lobby</text><text x="377" y="142" fill="#1d4ed8" font-family="Arial, Helvetica, sans-serif" font-size="8" text-anchor="middle">Review Characters</text><path stroke="#94a3b8" stroke-width="1.5" marker-end="url(#c)" d="M435 120h25"/><rect width="115" height="65" x="460" y="88" fill="#fdf4ff" stroke="#e9d5ff" stroke-width="1.5" filter="url(#b)" rx="10"/><g stroke="#9333ea" stroke-linecap="round" stroke-linejoin="round" stroke-width="2" transform="matrix(.75 0 0 .75 508 92)"><path d="M2 12s3-7 10-7 10 7 10 7-3 7-10 7-10-7-10-7"/><circle cx="12" cy="12" r="3"/></g><text x="517" y="126" fill="#1e293b" font-family="Arial, Helvetica, sans-serif" font-size="11" font-weight="700" text-anchor="middle">Role Reveal</text><text x="517" y="142" fill="#7e22ce" font-family="Arial, Helvetica, sans-serif" font-size="8" text-anchor="middle">Your Secret Identity</text><path stroke="#94a3b8" stroke-width="1.5" marker-end="url(#c)" d="M575 120h45q20 0 20 20v35"/><text x="40" y="193" fill="#94a3b8" font-family="Arial, Helvetica, sans-serif" font-size="9" font-weight="600" letter-spacing="1.5">GAMEPLAY LOOP</text><rect width="140" height="65" x="40" y="200" fill="#dbeafe" stroke="#3b82f6" stroke-width="2" filter="url(#b)" rx="10"/><path stroke="#2563eb" stroke-linecap="round" stroke-linejoin="round" stroke-width="1.5" d="M116.75 217.25a1.5 1.5 0 0 1-1.5 1.5h-9l-3 3v-12a1.5 1.5 0 0 1 1.5-1.5h10.5a1.5 1.5 0 0 1 1.5 1.5z"/><text x="110" y="240" fill="#1e40af" font-family="Arial, Helvetica, sans-serif" font-size="12" font-weight="700" text-anchor="middle">Discussion</text><text x="110" y="255" fill="#2563eb" font-family="Arial, Helvetica, sans-serif" font-size="8" text-anchor="middle">AI Debate + Player Chat</text><path stroke="#94a3b8" stroke-width="1.5" marker-end="url(#c)" d="M180 232h38"/><rect width="130" height="65" x="218" y="200" fill="#fef3c7" stroke="#f59e0b" stroke-width="2" filter="url(#b)" rx="10"/><g stroke="#b45309" stroke-linecap="round" stroke-linejoin="round" stroke-width="1.5"><path d="m280.75 214.25 2.25 2.25 7.5-7.5"/><path d="M289.75 215v5.25a1.5 1.5 0 0 1-1.5 1.5h-10.5a1.5 1.5 0 0 1-1.5-1.5v-10.5a1.5 1.5 0 0 1 1.5-1.5H286"/></g><text x="283" y="240" fill="#92400e" font-family="Arial, Helvetica, sans-serif" font-size="12" font-weight="700" text-anchor="middle">Voting</text><text x="283" y="255" fill="#b45309" font-family="Arial, Helvetica, sans-serif" font-size="8" text-anchor="middle">Strategic Elimination</text><path stroke="#94a3b8" stroke-width="1.5" marker-end="url(#c)" d="M348 232h34"/><rect width="120" height="65" x="382" y="200" fill="#fef2f2" stroke="#ef4444" stroke-width="2" filter="url(#b)" rx="10"/><g stroke="#dc2626" stroke-linecap="round" stroke-linejoin="round" stroke-width="2" transform="matrix(.75 0 0 .75 433 206)"><path d="M1 12s4-8 11-8 11 8 11 8-4 8-11 8-11-8-11-8"/><circle cx="12" cy="12" r="3"/></g><text x="442" y="240" fill="#991b1b" font-family="Arial, Helvetica, sans-serif" font-size="12" font-weight="700" text-anchor="middle">Reveal</text><text x="442" y="255" fill="#dc2626" font-family="Arial, Helvetica, sans-serif" font-size="8" text-anchor="middle">Hidden Role Exposed</text><path stroke="#94a3b8" stroke-width="1.5" marker-end="url(#c)" d="M502 232h34"/><rect width="120" height="65" x="536" y="200" fill="#1e1b4b" stroke="#6366f1" stroke-width="2" filter="url(#b)" rx="10"/><path stroke="#c4b5fd" stroke-linecap="round" stroke-linejoin="round" stroke-width="1.5" d="M602.75 215.593a6.75 6.75 0 1 1-7.342-7.343 5.25 5.25 0 0 0 7.342 7.343"/><text x="596" y="240" fill="#fff" font-family="Arial, Helvetica, sans-serif" font-size="12" font-weight="700" text-anchor="middle">Night</text><text x="596" y="255" fill="#c4b5fd" font-family="Arial, Helvetica, sans-serif" font-size="8" text-anchor="middle">Secret Actions</text><path stroke="#6366f1" stroke-dasharray="4,3" stroke-width="1.5" marker-end="url(#c)" d="M656 232q24 0 24-32 0-12-20-12H52q-12 0-12 12"/><rect width="100" height="16" x="340" y="180" fill="#f5f3ff" stroke="#c4b5fd" rx="8"/><text x="390" y="191" fill="#6366f1" font-family="Arial, Helvetica, sans-serif" font-size="8" font-weight="600" text-anchor="middle">REPEAT</text><rect width="230" height="65" x="700" y="200" fill="#ecfdf5" stroke="#10b981" stroke-width="2" filter="url(#b)" rx="10"/><g stroke="#047857" stroke-linecap="round" stroke-linejoin="round" stroke-width="1.5"><path d="M810.5 212.75h-1.125a1.875 1.875 0 0 1 0-3.75h1.125m9 3.75h1.125a1.875 1.875 0 0 0 0-3.75H819.5M809 222.5h12m-7.5-5.505v1.755c0 .413-.352.735-.727.908-.885.405-1.523 1.342-1.523 2.842h7.5c0-1.5-.637-2.437-1.522-2.843a.803.803 0 0 1-.728-.907v-1.755"/><path d="M819.5 207.5h-9v5.25a4.5 4.5 0 0 0 9 0z"/></g><text x="815" y="240" fill="#065f46" font-family="Arial, Helvetica, sans-serif" font-size="12" font-weight="700" text-anchor="middle">Victory</text><text x="815" y="255" fill="#047857" font-family="Arial, Helvetica, sans-serif" font-size="8" text-anchor="middle">Faction wins when condition met</text><path stroke="#10b981" stroke-dasharray="3,3" marker-end="url(#c)" d="M442 265q0 10 28 10 230 0 230-23v-12"/><text x="560" y="273" fill="#10b981" font-family="Arial, Helvetica, sans-serif" font-size="7" font-weight="500" text-anchor="middle">Win check after each phase</text></svg>