<svg xmlns="http://www.w3.org/2000/svg" width="1200" height="400" viewBox="0 0 1200 400"><defs><filter id="f" width="300%" height="300%" x="-100%" y="-100%"><feGaussianBlur in="SourceGraphic" stdDeviation="8"/></filter><filter id="h" width="200%" height="200%" x="-50%" y="-50%"><feGaussianBlur in="SourceGraphic" stdDeviation="4"/></filter><filter id="i" width="140%" height="180%" x="-20%" y="-40%"><feGaussianBlur in="SourceGraphic" stdDeviation="6"/></filter><filter id="j" width="120%" height="130%" x="-10%" y="-10%"><feDropShadow dx="0" dy="1" flood-color="#000" flood-opacity=".5" stdDeviation="2"/></filter><filter id="d" width="500%" height="500%" x="-200%" y="-200%"><feGaussianBlur in="SourceGraphic" stdDeviation="3"/></filter><filter id="titleGlow" width="160%" height="200%" x="-30%" y="-50%"><feGaussianBlur in="SourceGraphic" stdDeviation="10"/></filter><filter id="agentGlow" width="300%" height="300%" x="-100%" y="-100%"><feGaussianBlur in="SourceGraphic" stdDeviation="6"/></filter><filter id="ringPulse" width="200%" height="200%" x="-50%" y="-50%"><feGaussianBlur in="SourceGraphic" stdDeviation="2"/></filter><linearGradient id="a" x1="0" x2="0" y1="0" y2="1"><stop offset="0%" stop-color="#0a0a14"/><stop offset="50%" stop-color="#12122a"/><stop offset="100%" stop-color="#1a1a3a"/></linearGradient><linearGradient id="c" x1="0" x2="1" y1="0" y2="0"><stop offset="0%" stop-color="#ff6b35" stop-opacity="0"/><stop offset="20%" stop-color="#ff6b35" stop-opacity=".7"/><stop offset="50%" stop-color="#ff6b35"/><stop offset="80%" stop-color="#ff6b35" stop-opacity=".7"/><stop offset="100%" stop-color="#ff6b35" stop-opacity="0"/></linearGradient><linearGradient id="k" x1="0" x2="1" y1="0" y2="0"><stop offset="0%" stop-color="#ff6b35" stop-opacity="0"/><stop offset="15%" stop-color="#ff6b35" stop-opacity=".4"/><stop offset="50%" stop-color="#ff6b35" stop-opacity=".7"/><stop offset="85%" stop-color="#ff6b35" stop-opacity=".4"/><stop offset="100%" stop-color="#ff6b35" stop-opacity="0"/></linearGradient><linearGradient id="l" x1="0" x2="0" y1="0" y2="1"><stop offset="0%" stop-color="#1a1a3a"/><stop offset="100%" stop-color="#14142c"/></linearGradient><linearGradient id="titleGrad" x1="0" x2="0" y1="0" y2="1"><stop offset="0%" stop-color="#ffffff"/><stop offset="60%" stop-color="#fff5ee"/><stop offset="100%" stop-color="#ffcaa8"/></linearGradient><linearGradient id="badgeBg" x1="0" x2="1" y1="0" y2="1"><stop offset="0%" stop-color="#1a1a3a"/><stop offset="100%" stop-color="#2a1a30"/></linearGradient><radialGradient id="e" cx="50%" cy="45%" r="28%"><stop offset="0%" stop-color="#ff6b35" stop-opacity=".28"/><stop offset="35%" stop-color="#ff6b35" stop-opacity=".12"/><stop offset="70%" stop-color="#ff6b35" stop-opacity=".04"/><stop offset="100%" stop-color="#ff6b35" stop-opacity="0"/></radialGradient><radialGradient id="b" cx="50%" cy="50%" r="50%"><stop offset="0%" stop-color="#1a1a3a" stop-opacity="0"/><stop offset="60%" stop-color="#12122a" stop-opacity="0"/><stop offset="100%" stop-color="#0a0a14" stop-opacity=".4"/></radialGradient><radialGradient id="g" cx="50%" cy="50%" r="50%"><stop offset="0%" stop-color="#1e1e40"/><stop offset="80%" stop-color="#16163a"/><stop offset="100%" stop-color="#10102c"/></radialGradient><radialGradient id="tableGlow" cx="50%" cy="50%" r="50%"><stop offset="0%" stop-color="#ff6b35" stop-opacity=".35"/><stop offset="40%" stop-color="#ff6b35" stop-opacity=".15"/><stop offset="100%" stop-color="#ff6b35" stop-opacity="0"/></radialGradient></defs><!-- Background --><path fill="url(#a)" d="M0 0h1200v400H0z"/><path fill="url(#b)" d="M0 0h1200v400H0z"/><!-- Top accent lines --><path fill="url(#c)" d="M100 0h1000v1.5H100z"/><path fill="url(#c)" d="M200 4h800v.5H200z" opacity=".3"/><!-- Corner brackets --><path stroke="#ff6b35" stroke-linecap="round" stroke-width="1.5" d="M30 25h30m-30 0v30m1140-30h-30m30 0v30M30 375h30m-30 0v-30m1140 30h-30m30 0v-30" opacity=".4"/><!-- Left constellation --><path stroke="#c8c8e0" stroke-width=".4" d="m95 80 85 60" opacity=".08"/><path stroke="#c8c8e0" stroke-width=".4" d="m180 140-20 120" opacity=".06"/><path stroke="#c8c8e0" stroke-width=".4" d="m160 260-65 50" opacity=".08"/><path stroke="#c8c8e0" stroke-width=".3" d="m95 80 155-10" opacity=".05"/><path stroke="#c8c8e0" stroke-width=".3" d="m250 70 30 70" opacity=".04"/><!-- Right constellation --><path stroke="#c8c8e0" stroke-width=".4" d="m1105 90-85 60" opacity=".08"/><path stroke="#c8c8e0" stroke-width=".4" d="m1020 150 20 120" opacity=".06"/><path stroke="#c8c8e0" stroke-width=".4" d="m1040 270 65 50" opacity=".08"/><path stroke="#c8c8e0" stroke-width=".3" d="M1105 90 950 80" opacity=".05"/><path stroke="#c8c8e0" stroke-width=".3" d="m950 80-30 70" opacity=".04"/><!-- Left constellation stars --><circle cx="95" cy="80" r="2.5" fill="#c8c8e0" opacity=".15"/><circle cx="95" cy="80" r="2.5" fill="#c8c8e0" filter="url(#d)" opacity=".06"/><circle cx="180" cy="140" r="2" fill="#c8c8e0" opacity=".12"/><circle cx="160" cy="260" r="2" fill="#c8c8e0" opacity=".12"/><circle cx="95" cy="310" r="2.5" fill="#c8c8e0" opacity=".15"/><circle cx="95" cy="310" r="2.5" fill="#c8c8e0" filter="url(#d)" opacity=".06"/><circle cx="250" cy="70" r="1.5" fill="#c8c8e0" opacity=".1"/><circle cx="280" cy="140" r="1.2" fill="#c8c8e0" opacity=".08"/><!-- Right constellation stars --><circle cx="1105" cy="90" r="2.5" fill="#c8c8e0" opacity=".15"/><circle cx="1105" cy="90" r="2.5" fill="#c8c8e0" filter="url(#d)" opacity=".06"/><circle cx="1020" cy="150" r="2" fill="#c8c8e0" opacity=".12"/><circle cx="1040" cy="270" r="2" fill="#c8c8e0" opacity=".12"/><circle cx="1105" cy="320" r="2.5" fill="#c8c8e0" opacity=".15"/><circle cx="1105" cy="320" r="2.5" fill="#c8c8e0" filter="url(#d)" opacity=".06"/><circle cx="950" cy="80" r="1.5" fill="#c8c8e0" opacity=".1"/><circle cx="920" cy="140" r="1.2" fill="#c8c8e0" opacity=".08"/><!-- Additional decorative constellation points --><circle cx="350" cy="50" r="1" fill="#c8c8e0" opacity=".08"/><circle cx="400" cy="90" r="1.3" fill="#c8c8e0" opacity=".06"/><path stroke="#c8c8e0" stroke-width=".3" d="m350 50 50 40" opacity=".04"/><circle cx="850" cy="50" r="1" fill="#c8c8e0" opacity=".08"/><circle cx="800" cy="90" r="1.3" fill="#c8c8e0" opacity=".06"/><path stroke="#c8c8e0" stroke-width=".3" d="m850 50-50 40" opacity=".04"/><circle cx="200" cy="350" r="1.2" fill="#c8c8e0" opacity=".07"/><circle cx="1000" cy="350" r="1.2" fill="#c8c8e0" opacity=".07"/><circle cx="500" cy="30" r=".8" fill="#c8c8e0" opacity=".06"/><circle cx="700" cy="35" r=".8" fill="#c8c8e0" opacity=".06"/><circle cx="450" cy="370" r="1" fill="#c8c8e0" opacity=".05"/><circle cx="750" cy="370" r="1" fill="#c8c8e0" opacity=".05"/><!-- Additional orange accent stars --><circle cx="300" cy="340" r="1" fill="#ff6b35" opacity=".12"/><circle cx="150" cy="190" r="1.2" fill="#ff6b35" opacity=".1"/><circle cx="900" cy="340" r="1" fill="#ff6b35" opacity=".12"/><circle cx="1050" cy="190" r="1.2" fill="#ff6b35" opacity=".1"/><circle cx="340" cy="180" r=".8" fill="#ff6b35" opacity=".08"/><circle cx="860" cy="180" r=".8" fill="#ff6b35" opacity=".08"/><circle cx="470" cy="60" r=".7" fill="#ff6b35" opacity=".06"/><circle cx="730" cy="60" r=".7" fill="#ff6b35" opacity=".06"/><!-- Enhanced radial glow around roundtable --><ellipse cx="600" cy="155" fill="url(#e)" rx="220" ry="145"/><ellipse cx="600" cy="148" fill="url(#tableGlow)" rx="120" ry="90"/><!-- Roundtable group --><g transform="translate(600 140)"><!-- Pulsing concentric rings --><circle r="95" fill="none" stroke="#ff6b35" stroke-width=".3" opacity=".04" filter="url(#ringPulse)"/><circle r="88" fill="none" stroke="#ff6b35" stroke-width=".4" opacity=".06"/><circle r="80" fill="none" stroke="#ff6b35" stroke-width=".4" opacity=".08"/><circle r="72" fill="none" stroke="#ff6b35" stroke-width=".6" opacity=".14"/><circle r="74" fill="none" stroke="#ff6b35" stroke-width=".3" opacity=".07"/><!-- Central glow --><circle r="60" fill="#ff6b35" filter="url(#f)" opacity=".06"/><circle r="40" fill="#ff6b35" filter="url(#f)" opacity=".04"/><!-- Table --><ellipse cy="8" fill="url(#g)" stroke="#ff6b35" stroke-width="1.8" opacity=".9" rx="48" ry="32"/><ellipse cy="8" fill="none" stroke="#ff6b35" stroke-width=".6" opacity=".3" rx="30" ry="20"/><!-- Gavel on table --><g opacity=".8"><path stroke="#ff6b35" stroke-linecap="round" stroke-width="2.5" d="M-10 14 10 0"/><rect width="11" height="7" x="7" y="-7" fill="#ff6b35" rx="2" transform="rotate(-34 12 -3)"/></g><!-- Highlighted agent (orange) at top - enhanced glow --><g transform="translate(0 -55)"><circle r="12" fill="#ff6b35" filter="url(#agentGlow)" opacity=".2"/><circle r="8" fill="#ff6b35" filter="url(#h)" opacity=".15"/><circle r="7.5" fill="#ff6b35"/><path fill="#ff6b35" d="M-6 8q0-4 6-5 6 1 6 5Z"/><rect width="8" height="2.5" x="-4" y="-2" fill="#0a0a14" opacity=".7" rx="1.2"/></g><!-- Gray agent at top-right --><g transform="translate(52 -18)"><circle r="6.5" fill="#c8c8e0" opacity=".6"/><path fill="#c8c8e0" d="M-5.5 7.5q0-4 5.5-5 5.5 1 5.5 5Z" opacity=".6"/><rect width="7" height="2" x="-3.5" y="-1.5" fill="#0a0a14" opacity=".4" rx="1"/><!-- Thought indicator dots --><circle cx="10" cy="-8" r="1" fill="#c8c8e0" opacity=".3"/><circle cx="12" cy="-11" r=".7" fill="#c8c8e0" opacity=".2"/></g><!-- Gray agent at bottom-right --><g transform="translate(48 42)"><circle r="6.5" fill="#c8c8e0" opacity=".6"/><path fill="#c8c8e0" d="M-5.5 7.5q0-4 5.5-5 5.5 1 5.5 5Z" opacity=".6"/><rect width="7" height="2" x="-3.5" y="-1.5" fill="#0a0a14" opacity=".4" rx="1"/></g><!-- Gray agent at bottom --><g transform="translate(0 62)"><circle r="6.5" fill="#c8c8e0" opacity=".6"/><path fill="#c8c8e0" d="M-5.5 7.5q0-4 5.5-5 5.5 1 5.5 5Z" opacity=".6"/><rect width="7" height="2" x="-3.5" y="-1.5" fill="#0a0a14" opacity=".4" rx="1"/><!-- Thought indicator dots --><circle cx="-9" cy="-5" r=".8" fill="#c8c8e0" opacity=".25"/><circle cx="-11" cy="-8" r=".6" fill="#c8c8e0" opacity=".15"/></g><!-- Gray agent at bottom-left --><g transform="translate(-48 42)"><circle r="6.5" fill="#c8c8e0" opacity=".6"/><path fill="#c8c8e0" d="M-5.5 7.5q0-4 5.5-5 5.5 1 5.5 5Z" opacity=".6"/><rect width="7" height="2" x="-3.5" y="-1.5" fill="#0a0a14" opacity=".4" rx="1"/><!-- Thought indicator line --><line x1="-9" y1="-3" x2="-13" y2="-5" stroke="#c8c8e0" stroke-width=".5" opacity=".2"/><line x1="-13" y1="-5" x2="-12" y2="-9" stroke="#c8c8e0" stroke-width=".4" opacity=".15"/></g><!-- Gray agent at top-left --><g transform="translate(-52 -18)"><circle r="6.5" fill="#c8c8e0" opacity=".6"/><path fill="#c8c8e0" d="M-5.5 7.5q0-4 5.5-5 5.5 1 5.5 5Z" opacity=".6"/><rect width="7" height="2" x="-3.5" y="-1.5" fill="#0a0a14" opacity=".4" rx="1"/><!-- Thought indicator dots --><circle cx="-10" cy="-6" r=".9" fill="#c8c8e0" opacity=".25"/><circle cx="-13" cy="-8" r=".6" fill="#c8c8e0" opacity=".15"/></g><!-- Connection lines from agents to table --><path stroke="#ff6b35" stroke-width=".5" d="M0-47v19" opacity=".25"/><path stroke="#c8c8e0" stroke-width=".4" d="M46-14 32-4m10 42L30 28M0 54V38m-42 0 12-10m-16-42 14 10" opacity=".12"/></g><!-- Title: "COUNCIL" with gradient and enhanced glow --><text x="600" y="273" fill="#ff6b35" filter="url(#titleGlow)" font-family="'Playfair Display','Georgia','Times New Roman',serif" font-size="62" font-weight="700" letter-spacing="18" opacity=".2" text-anchor="middle">COUNCIL</text><text x="600" y="273" fill="#ff6b35" filter="url(#i)" font-family="'Playfair Display','Georgia','Times New Roman',serif" font-size="62" font-weight="700" letter-spacing="18" opacity=".12" text-anchor="middle">COUNCIL</text><text x="600" y="273" fill="url(#titleGrad)" filter="url(#j)" font-family="'Playfair Display','Georgia','Times New Roman',serif" font-size="62" font-weight="700" letter-spacing="18" text-anchor="middle">COUNCIL</text><!-- Decorative divider --><path stroke="#ff6b35" stroke-width=".8" d="M470 286h260" opacity=".3"/><path fill="#ff6b35" d="m600 280.343 5.657 5.657-5.657 5.657-5.657-5.657z" opacity=".5"/><!-- Subtitle --><text x="600" y="316" fill="#c8c8e0" font-family="'Inter','Segoe UI','Helvetica Neue',Arial,sans-serif" font-size="16" font-weight="400" letter-spacing="5" opacity=".9" text-anchor="middle">MULTI-AGENT REASONING GAME</text><!-- Tagline --><text x="600" y="348" fill="#c8c8e0" font-family="'Inter','Segoe UI','Helvetica Neue',Arial,sans-serif" font-size="12" font-weight="300" letter-spacing="2" opacity=".55" text-anchor="middle">Where AI Agents Debate, Deceive &amp; Vote</text><!-- Bottom accent lines --><path fill="url(#k)" d="M150 398h900v1.2H150z"/><path fill="url(#k)" d="M250 395h700v.4H250z" opacity=".25"/><!-- Hackathon badge - repositioned and more prominent --><g transform="translate(600 380)"><rect width="240" height="22" x="-120" y="-11" fill="url(#badgeBg)" stroke="#ff6b35" stroke-width=".8" opacity=".75" rx="11"/><path fill="#ff6b35" d="M-96.566-5.713v2.287h-2.287v2.287h-2.286v-2.287h-2.287v-2.286h-2.286v9.147H-108v2.287h6.86v-2.287h-2.286v-2.287h2.287v2.287h2.287v-2.287h2.286v2.287h-2.286v2.287h6.86v-2.287h-2.288V-5.713z" opacity=".9"/><text x="0" y="4.5" fill="#c8c8e0" font-family="'Inter','Segoe UI','Helvetica Neue',Arial,sans-serif" font-size="9.5" font-weight="500" letter-spacing="1" opacity=".85" text-anchor="middle">Mistral AI Worldwide Hackathon 2026</text></g></svg>