<svg xmlns="http://www.w3.org/2000/svg" fill="none" viewBox="0 0 960 600"><defs><linearGradient id="a" x1="0" x2="960" y1="0" y2="0" gradientUnits="userSpaceOnUse"><stop offset="0%" stop-color="#7c2d12"/><stop offset="100%" stop-color="#fa520f"/></linearGradient><marker id="c" markerHeight="6" markerWidth="8" orient="auto" refX="8" refY="3"><path fill="#fa520f" d="m0 0 8 3-8 3Z"/></marker><filter id="b" width="108%" height="108%" x="-4%" y="-4%"><feDropShadow dx="0" dy="2" flood-color="#000" flood-opacity=".08" stdDeviation="4"/></filter></defs><rect width="960" height="600" fill="#fff" rx="12"/><rect width="960" height="56" fill="url(#a)" rx="12"/><path fill="url(#a)" d="M0 44h960v12H0z"/><path fill="#fff" d="M393.857 17.772v3.77h-3.772v3.773h-3.77v-3.772h-3.772v-3.77h-3.77v15.085H375v3.771h11.315v-3.77h-3.772v-3.772h3.772v3.771h3.772v-3.771h3.77v3.771h-3.77v3.771H401.4v-3.77h-3.773V17.771z"/><text x="490" y="36" fill="#fff" font-family="'Inter','Segoe UI',Arial,sans-serif" font-size="17" font-weight="700" letter-spacing="1.5" text-anchor="middle">MISTRAL AI INTEGRATION</text><rect width="270" height="65" x="345" y="76" fill="#fa520f" filter="url(#b)" rx="14"/><path fill="#fff" fill-opacity=".2" d="M385.715 91.144v5.141h-5.144v5.144h-5.142v-5.144h-5.143v-5.14h-5.141v20.571H360v5.142h15.429v-5.142h-5.143v-5.143h5.143v5.143h5.144v-5.143h5.142v5.143h-5.142v5.142H396v-5.142h-5.145V91.144z"/><text x="480" y="102" fill="#fff" font-family="Arial,sans-serif" font-size="16" font-weight="700" text-anchor="middle">Mistral AI API</text><text x="480" y="122" fill="#fff7ed" font-family="Arial,sans-serif" font-size="11" text-anchor="middle">mistral-large-latest · Structured Output · Streaming</text><path stroke="#fa520f" stroke-dasharray="4,3" stroke-width="1.5" d="M345 108H195"/><rect width="165" height="68" x="30" y="76" fill="#fff7ed" stroke="#fdba74" stroke-width="1.5" filter="url(#b)" rx="10"/><rect width="52" height="16" x="40" y="82" fill="#fa520f" rx="3"/><text x="66" y="93" fill="#fff" font-family="Arial,sans-serif" font-size="8" font-weight="700" text-anchor="middle">STEP 1</text><text x="42" y="110" fill="#1e293b" font-family="Arial,sans-serif" font-size="12" font-weight="700">World Extraction</text><text x="42" y="124" fill="#78350f" font-family="Arial,sans-serif" font-size="9">Document → WorldModel</text><text x="42" y="136" fill="#9a3412" font-family="Arial,sans-serif" font-size="8">JSON mode · Pydantic v2</text><path stroke="#fa520f" stroke-dasharray="4,3" stroke-width="1.5" d="M615 108h150"/><rect width="165" height="68" x="765" y="76" fill="#fff7ed" stroke="#fdba74" stroke-width="1.5" filter="url(#b)" rx="10"/><rect width="52" height="16" x="775" y="82" fill="#fa520f" rx="3"/><text x="801" y="93" fill="#fff" font-family="Arial,sans-serif" font-size="8" font-weight="700" text-anchor="middle">STEP 2</text><text x="777" y="110" fill="#1e293b" font-family="Arial,sans-serif" font-size="12" font-weight="700">Character Gen</text><text x="777" y="124" fill="#78350f" font-family="Arial,sans-serif" font-size="9">5-8 unique characters</text><text x="777" y="136" fill="#9a3412" font-family="Arial,sans-serif" font-size="8">Mistral Large 3 · ~60s</text><path stroke="#fdba74" stroke-dasharray="6,4" stroke-width=".5" d="M60 170h840"/><rect width="150" height="18" x="405" y="161" fill="#fff7ed" stroke="#fdba74" rx="9"/><text x="480" y="174" fill="#9a3412" font-family="Arial,sans-serif" font-size="9" font-weight="600" text-anchor="middle">IN-GAME · REAL-TIME</text><rect width="280" height="115" x="30" y="200" fill="#fff7ed" stroke="#fa520f" stroke-width="2" filter="url(#b)" rx="10"/><rect width="90" height="18" x="40" y="206" fill="#fa520f" rx="4"/><text x="85" y="219" fill="#fff" font-family="Arial,sans-serif" font-size="9" font-weight="700" text-anchor="middle">DIALOGUE</text><text x="42" y="242" fill="#1e293b" font-family="Arial,sans-serif" font-size="11" font-weight="600">Character Agent → Mistral API</text><text x="42" y="260" fill="#78350f" font-family="Arial,sans-serif" font-size="9">· Multi-layer prompt (brain + heart + DNA)</text><text x="42" y="275" fill="#78350f" font-family="Arial,sans-serif" font-size="9">· Memory + emotions + relationships</text><text x="42" y="290" fill="#78350f" font-family="Arial,sans-serif" font-size="9">· SSE streaming → real-time render</text><text x="42" y="305" fill="#9a3412" font-family="Arial,sans-serif" font-size="8">+ Anti-jailbreak output filtering</text><rect width="280" height="115" x="340" y="200" fill="#fff7ed" stroke="#fa520f" stroke-width="2" filter="url(#b)" rx="10"/><rect width="72" height="18" x="350" y="206" fill="#fa520f" rx="4"/><text x="386" y="219" fill="#fff" font-family="Arial,sans-serif" font-size="9" font-weight="700" text-anchor="middle">VOTING</text><text x="352" y="242" fill="#1e293b" font-family="Arial,sans-serif" font-size="11" font-weight="600">Strategic Vote Engine</text><text x="352" y="260" fill="#78350f" font-family="Arial,sans-serif" font-size="9">· Analyzes full discussion context</text><text x="352" y="275" fill="#78350f" font-family="Arial,sans-serif" font-size="9">· Weighs suspicion + alliances</text><text x="352" y="290" fill="#78350f" font-family="Arial,sans-serif" font-size="9">· Function calling: cast_vote()</text><text x="352" y="305" fill="#9a3412" font-family="Arial,sans-serif" font-size="8">Returns: { target, reason, confidence }</text><rect width="280" height="115" x="650" y="200" fill="#fff7ed" stroke="#fa520f" stroke-width="2" filter="url(#b)" rx="10"/><rect width="120" height="18" x="660" y="206" fill="#fa520f" rx="4"/><text x="720" y="219" fill="#fff" font-family="Arial,sans-serif" font-size="9" font-weight="700" text-anchor="middle">NIGHT + NARRATION</text><text x="662" y="242" fill="#1e293b" font-family="Arial,sans-serif" font-size="11" font-weight="600">Secret Actions + Game Master</text><text x="662" y="260" fill="#78350f" font-family="Arial,sans-serif" font-size="9">· Role-based action: kill / investigate</text><text x="662" y="275" fill="#78350f" font-family="Arial,sans-serif" font-size="9">· Function calling: night_action()</text><text x="662" y="290" fill="#78350f" font-family="Arial,sans-serif" font-size="9">· Game Master narration generation</text><text x="662" y="305" fill="#9a3412" font-family="Arial,sans-serif" font-size="8">Complication injection based on tension</text><path stroke="#fa520f" stroke-width="1.5" marker-end="url(#c)" d="M170 315v45"/><path stroke="#fa520f" stroke-width="1.5" marker-end="url(#c)" d="M480 315v45"/><path stroke="#fa520f" stroke-width="1.5" marker-end="url(#c)" d="M790 315v45"/><rect width="840" height="48" x="60" y="362" fill="#fa520f" filter="url(#b)" rx="10"/><path fill="#fff" fill-opacity=".25" d="M93.857 375.772v3.77h-3.772v3.773h-3.77v-3.772h-3.772v-3.77h-3.77v15.085H75v3.771h11.315v-3.77h-3.772v-3.772h3.772v3.771h3.772v-3.771h3.77v3.771h-3.77v3.771H101.4v-3.77h-3.773v-15.087z"/><text x="480" y="385" fill="#fff" font-family="Arial,sans-serif" font-size="14" font-weight="700" text-anchor="middle">Mistral Inference Engine</text><text x="480" y="401" fill="#ffedd5" font-family="Arial,sans-serif" font-size="10" text-anchor="middle">Streaming tokens → SSE events → Frontend render</text><path stroke="#fa520f" stroke-width="1.5" marker-end="url(#c)" d="M170 410v40"/><path stroke="#fa520f" stroke-width="1.5" marker-end="url(#c)" d="M480 410v40"/><path stroke="#fa520f" stroke-width="1.5" marker-end="url(#c)" d="M790 410v40"/><rect width="150" height="40" x="95" y="452" fill="#fff7ed" stroke="#fdba74" stroke-width="1.5" rx="8"/><text x="170" y="472" fill="#1e293b" font-family="Arial,sans-serif" font-size="11" font-weight="600" text-anchor="middle">stream_delta</text><text x="170" y="486" fill="#9a3412" font-family="Arial,sans-serif" font-size="9" text-anchor="middle">→ Chat UI render</text><rect width="150" height="40" x="405" y="452" fill="#fff7ed" stroke="#fdba74" stroke-width="1.5" rx="8"/><text x="480" y="472" fill="#1e293b" font-family="Arial,sans-serif" font-size="11" font-weight="600" text-anchor="middle">Structured JSON</text><text x="480" y="486" fill="#9a3412" font-family="Arial,sans-serif" font-size="9" text-anchor="middle">→ Vote tally + reveal</text><rect width="150" height="40" x="715" y="452" fill="#fff7ed" stroke="#fdba74" stroke-width="1.5" rx="8"/><text x="790" y="472" fill="#1e293b" font-family="Arial,sans-serif" font-size="11" font-weight="600" text-anchor="middle">Action Result</text><text x="790" y="486" fill="#9a3412" font-family="Arial,sans-serif" font-size="9" text-anchor="middle">→ Kill / Investigate / Protect</text><rect width="880" height="50" x="40" y="510" fill="#fff7ed" stroke="#fdba74" rx="10"/><path fill="#fa520f" d="M69.994 522v1.998h-1.999v1.999h-1.998v-2h-2V522H62v7.995h-2v1.998h5.997v-1.998h-2v-2h2v2h1.999v-2h1.998v2h-1.998v1.998h5.996v-1.998h-2v-7.996z"/><text x="82" y="531" fill="#1e293b" font-family="Arial,sans-serif" font-size="10" font-weight="700">Structured Output</text><text x="82" y="546" fill="#78350f" font-family="Arial,sans-serif" font-size="9">Pydantic v2 validated</text><path fill="#fa520f" d="M279.994 522v1.998h-1.999v1.999h-1.998v-2h-2V522H272v7.995h-2v1.998h5.997v-1.998h-2v-2h2v2h1.999v-2h1.998v2h-1.998v1.998h5.996v-1.998h-2v-7.996z"/><text x="290" y="531" fill="#1e293b" font-family="Arial,sans-serif" font-size="10" font-weight="700">Function Calling</text><text x="290" y="546" fill="#78350f" font-family="Arial,sans-serif" font-size="9">cast_vote + night_action</text><path fill="#fa520f" d="M489.994 522v1.998h-1.999v1.999h-1.998v-2h-2V522H482v7.995h-2v1.998h5.997v-1.998h-2v-2h2v2h1.999v-2h1.998v2h-1.998v1.998h5.996v-1.998h-2v-7.996z"/><text x="500" y="531" fill="#1e293b" font-family="Arial,sans-serif" font-size="10" font-weight="700">SSE Streaming</text><text x="500" y="546" fill="#78350f" font-family="Arial,sans-serif" font-size="9">Real-time token delivery</text><path fill="#fa520f" d="M699.994 522v1.998h-1.999v1.999h-1.998v-2h-2V522H692v7.995h-2v1.998h5.997v-1.998h-2v-2h2v2h1.999v-2h1.998v2h-1.998v1.998h5.996v-1.998h-2v-7.996z"/><text x="710" y="531" fill="#1e293b" font-family="Arial,sans-serif" font-size="10" font-weight="700">Anti-Jailbreak</text><text x="710" y="546" fill="#78350f" font-family="Arial,sans-serif" font-size="9">Persona enforcement</text><text x="480" y="585" fill="#94a3b8" font-family="Arial,sans-serif" font-size="10" text-anchor="middle">Mistral AI powers every character thought, strategic decision, and narrative beat in COUNCIL</text></svg>