<svg xmlns="http://www.w3.org/2000/svg" fill="none" viewBox="0 0 960 680">
<defs>
<linearGradient id="a" x1="0" x2="960" y1="0" y2="0" gradientUnits="userSpaceOnUse"><stop offset="0%" stop-color="#1e1b4b"/><stop offset="100%" stop-color="#312e81"/></linearGradient>
<linearGradient id="pub" x1="0" x2="0" y1="0" y2="1"><stop offset="0%" stop-color="#ecfdf5"/><stop offset="100%" stop-color="#d1fae5"/></linearGradient>
<linearGradient id="hid" x1="0" x2="0" y1="0" y2="1"><stop offset="0%" stop-color="#fef2f2"/><stop offset="100%" stop-color="#fce7f3"/></linearGradient>
<filter id="b" width="108%" height="108%" x="-4%" y="-4%"><feDropShadow dx="0" dy="2" flood-color="#000" flood-opacity=".08" stdDeviation="4"/></filter>
<marker id="arr-red" markerHeight="5" markerWidth="7" orient="auto" refX="7" refY="2.5"><path fill="#ef4444" d="m0 0 7 2.5L0 5Z"/></marker>
<marker id="arr-purple" markerHeight="5" markerWidth="7" orient="auto" refX="7" refY="2.5"><path fill="#8b5cf6" d="m0 0 7 2.5L0 5Z"/></marker>
<marker id="arr-indigo" markerHeight="5" markerWidth="7" orient="auto" refX="7" refY="2.5"><path fill="#312e81" d="m0 0 7 2.5L0 5Z"/></marker>
<marker id="arr-amber" markerHeight="5" markerWidth="7" orient="auto" refX="7" refY="2.5"><path fill="#f59e0b" d="m0 0 7 2.5L0 5Z"/></marker>
<marker id="arr-teal" markerHeight="5" markerWidth="7" orient="auto" refX="7" refY="2.5"><path fill="#14b8a6" d="m0 0 7 2.5L0 5Z"/></marker>
</defs>

<rect width="960" height="680" fill="#fff" rx="12"/>
<rect width="960" height="56" fill="url(#a)" rx="12"/>
<path fill="url(#a)" d="M0 44h960v12H0z"/>
<text x="480" y="30" fill="#fff" font-family="'Inter','Segoe UI',Arial,sans-serif" font-size="17" font-weight="700" letter-spacing="2" text-anchor="middle">PROGRESSIVE DISCLOSURE DESIGN</text>
<text x="480" y="48" fill="#c4b5fd" font-family="'Inter','Segoe UI',Arial,sans-serif" font-size="10" text-anchor="middle">Information reveals strategically throughout gameplay</text>

<rect width="430" height="300" x="30" y="72" fill="url(#pub)" stroke="#10b981" stroke-width="2" filter="url(#b)" rx="12"/>
<rect width="120" height="24" x="42" y="82" fill="#10b981" rx="6"/>
<text x="102" y="99" fill="#fff" font-family="'Inter','Segoe UI',Arial,sans-serif" font-size="11" font-weight="700" text-anchor="middle">PUBLIC</text>
<text x="170" y="99" fill="#047857" font-family="'Inter','Segoe UI',Arial,sans-serif" font-size="11" font-weight="600">Visible to All Players</text>

<rect width="390" height="38" x="50" y="118" fill="#fff" stroke="#a7f3d0" stroke-width="1.2" rx="7"/>
<circle cx="70" cy="137" r="12" fill="#d1fae5" stroke="#10b981"/>
<g transform="translate(70,137)"><circle cx="0" cy="-3" r="3" fill="#047857"/><path d="M-5,8 Q-5,2 0,2 Q5,2 5,8" fill="#047857"/></g>
<text x="90" y="133" fill="#1e293b" font-family="Arial,sans-serif" font-size="11" font-weight="700">Character Name &amp; Avatar</text>
<text x="90" y="148" fill="#64748b" font-family="Arial,sans-serif" font-size="9">Unique identity, visual appearance in 3D roundtable</text>

<rect width="390" height="38" x="50" y="164" fill="#fff" stroke="#a7f3d0" stroke-width="1.2" rx="7"/>
<circle cx="70" cy="183" r="12" fill="#d1fae5" stroke="#10b981"/>
<g transform="translate(70,183)"><path d="M-6,-4 L4,-4 Q7,-4 7,-1 L7,2 Q7,4 4,4 L-1,4 L-5,8 L-5,4 Q-7,4 -7,2 L-7,-1 Q-7,-4 -6,-4 Z" fill="#047857"/></g>
<text x="90" y="179" fill="#1e293b" font-family="Arial,sans-serif" font-size="11" font-weight="700">Speaking Style &amp; Public Role</text>
<text x="90" y="194" fill="#64748b" font-family="Arial,sans-serif" font-size="9">Persona, voice patterns, declared occupation</text>

<rect width="390" height="38" x="50" y="210" fill="#fff" stroke="#a7f3d0" stroke-width="1.2" rx="7"/>
<circle cx="70" cy="229" r="12" fill="#d1fae5" stroke="#10b981"/>
<g transform="translate(70,229)"><path d="M-7,0 Q-7,-5 0,-5 Q7,-5 7,0 Q7,5 0,5 Q-7,5 -7,0 Z" fill="none" stroke="#047857" stroke-width="1.5"/><circle cx="0" cy="0" r="2.5" fill="#047857"/></g>
<text x="90" y="225" fill="#1e293b" font-family="Arial,sans-serif" font-size="11" font-weight="700">Observable Behavior &amp; Statements</text>
<text x="90" y="240" fill="#64748b" font-family="Arial,sans-serif" font-size="9">What they say in council, accusations, defenses</text>

<rect width="390" height="38" x="50" y="256" fill="#fff" stroke="#a7f3d0" stroke-width="1.2" rx="7"/>
<circle cx="70" cy="275" r="12" fill="#d1fae5" stroke="#10b981"/>
<g transform="translate(70,275)"><circle cx="-3" cy="-3" r="2.5" fill="#047857"/><path d="M-8,5 Q-8,0 -3,0 Q2,0 2,5" fill="#047857"/><circle cx="4" cy="-3" r="2.5" fill="#047857"/><path d="M-1,5 Q-1,0 4,0 Q9,0 9,5" fill="#047857"/></g>
<text x="90" y="271" fill="#1e293b" font-family="Arial,sans-serif" font-size="11" font-weight="700">Relationship Reputation</text>
<text x="90" y="286" fill="#64748b" font-family="Arial,sans-serif" font-size="9">Known alliances, public trust scores, social bonds</text>

<rect width="390" height="38" x="50" y="302" fill="#fff" stroke="#a7f3d0" stroke-width="1.2" rx="7"/>
<circle cx="70" cy="321" r="12" fill="#d1fae5" stroke="#10b981"/>
<g transform="translate(70,321)"><path d="M0,-6 C-2,-6 -6,-4 -6,0 C-6,4 0,8 0,8 C0,8 6,4 6,0 C6,-4 2,-6 0,-6 Z" fill="#047857"/></g>
<text x="90" y="317" fill="#1e293b" font-family="Arial,sans-serif" font-size="11" font-weight="700">Emotional Indicators</text>
<text x="90" y="332" fill="#64748b" font-family="Arial,sans-serif" font-size="9">Visible mood, animated reactions, tension cues</text>

<rect width="430" height="300" x="500" y="72" fill="url(#hid)" stroke="#ef4444" stroke-width="2" filter="url(#b)" rx="12"/>
<rect width="120" height="24" x="512" y="82" fill="#ef4444" rx="6"/>
<text x="572" y="99" fill="#fff" font-family="'Inter','Segoe UI',Arial,sans-serif" font-size="11" font-weight="700" text-anchor="middle">HIDDEN</text>
<text x="640" y="99" fill="#991b1b" font-family="'Inter','Segoe UI',Arial,sans-serif" font-size="11" font-weight="600">Revealed Progressively</text>

<rect width="390" height="38" x="520" y="118" fill="#fff" stroke="#fecaca" stroke-width="1.2" rx="7"/>
<circle cx="540" cy="137" r="12" fill="#fef2f2" stroke="#ef4444"/>
<g transform="translate(540,137)"><path d="M-2,-6 Q-2,-7 0,-7 Q3,-7 3,-4.5 Q3,-3 1,-2 L1,0" fill="none" stroke="#dc2626" stroke-width="2" stroke-linecap="round"/><circle cx="1" cy="3" r="1.2" fill="#dc2626"/></g>
<text x="560" y="133" fill="#1e293b" font-family="Arial,sans-serif" font-size="11" font-weight="700">Hidden Role</text>
<text x="560" y="148" fill="#64748b" font-family="Arial,sans-serif" font-size="9">Werewolf / Seer / Doctor / Witch / Villager</text>

<rect width="390" height="38" x="520" y="164" fill="#fff" stroke="#fecaca" stroke-width="1.2" rx="7"/>
<circle cx="540" cy="183" r="12" fill="#fef2f2" stroke="#ef4444"/>
<g transform="translate(540,183)"><path d="M0,-7 L-6,-4 L-6,2 Q-6,7 0,8 Q6,7 6,2 L6,-4 Z" fill="#dc2626"/></g>
<text x="560" y="179" fill="#1e293b" font-family="Arial,sans-serif" font-size="11" font-weight="700">Faction Alignment</text>
<text x="560" y="194" fill="#64748b" font-family="Arial,sans-serif" font-size="9">Good vs Evil — determines team victory</text>

<rect width="390" height="38" x="520" y="210" fill="#fff" stroke="#fecaca" stroke-width="1.2" rx="7"/>
<circle cx="540" cy="229" r="12" fill="#fef2f2" stroke="#ef4444"/>
<g transform="translate(540,229)"><path d="M-3,-7 L-5,-3 L5,-3 L3,-7 Z" fill="#dc2626"/><path d="M-5,-3 L-6,3 L6,3 L5,-3 Z" fill="#dc2626"/><line x1="0" y1="3" x2="0" y2="7" stroke="#dc2626" stroke-width="2"/><line x1="-4" y1="7" x2="4" y2="7" stroke="#dc2626" stroke-width="2" stroke-linecap="round"/></g>
<text x="560" y="225" fill="#1e293b" font-family="Arial,sans-serif" font-size="11" font-weight="700">Win Condition</text>
<text x="560" y="240" fill="#64748b" font-family="Arial,sans-serif" font-size="9">Specific objective that triggers faction victory</text>

<rect width="390" height="38" x="520" y="256" fill="#fff" stroke="#fecaca" stroke-width="1.2" rx="7"/>
<circle cx="540" cy="275" r="12" fill="#fef2f2" stroke="#ef4444"/>
<g transform="translate(540,275)"><rect x="-6" y="-7" width="12" height="14" rx="1.5" fill="none" stroke="#dc2626" stroke-width="1.5"/><polyline points="-3,0 -1,3 4,-3" fill="none" stroke="#dc2626" stroke-width="2" stroke-linecap="round" stroke-linejoin="round"/></g>
<text x="560" y="271" fill="#1e293b" font-family="Arial,sans-serif" font-size="11" font-weight="700">Internal Voting Reasoning</text>
<text x="560" y="286" fill="#64748b" font-family="Arial,sans-serif" font-size="9">Why each AI voted the way they did</text>

<rect width="390" height="38" x="520" y="302" fill="#fff" stroke="#fecaca" stroke-width="1.2" rx="7"/>
<circle cx="540" cy="321" r="12" fill="#fef2f2" stroke="#ef4444"/>
<g transform="translate(540,321)"><path d="M3,-6 A7,7 0 1,0 3,6 A5,5 0 0,1 3,-6 Z" fill="#dc2626"/></g>
<text x="560" y="317" fill="#1e293b" font-family="Arial,sans-serif" font-size="11" font-weight="700">Night Action Rationale &amp; AI Monologue</text>
<text x="560" y="332" fill="#64748b" font-family="Arial,sans-serif" font-size="9">Kill/save/investigate decisions + inner thought process</text>

<line x1="480" y1="82" x2="480" y2="362" stroke="#e2e8f0" stroke-dasharray="4,4" stroke-width="1.5"/>

<text x="480" y="400" fill="#1e293b" font-family="'Inter','Segoe UI',Arial,sans-serif" font-size="13" font-weight="700" letter-spacing="1.5" text-anchor="middle">REVEAL MOMENTS</text>
<text x="480" y="416" fill="#94a3b8" font-family="'Inter','Segoe UI',Arial,sans-serif" font-size="9" text-anchor="middle">When hidden information becomes visible</text>

<line x1="45" y1="468" x2="915" y2="468" stroke="#e2e8f0" stroke-width="2"/>

<rect width="168" height="105" x="22" y="430" fill="#fff" stroke="#ef4444" stroke-width="1.8" filter="url(#b)" rx="10"/>
<rect width="18" height="18" x="32" y="440" fill="#ef4444" rx="9"/>
<text x="41" y="453" fill="#fff" font-family="Arial,sans-serif" font-size="10" font-weight="700" text-anchor="middle">1</text>
<text x="56" y="453" fill="#1e293b" font-family="Arial,sans-serif" font-size="11" font-weight="700">Elimination</text>
<text x="34" y="477" fill="#64748b" font-family="Arial,sans-serif" font-size="9">Eliminated character's full</text>
<text x="34" y="490" fill="#64748b" font-family="Arial,sans-serif" font-size="9">hidden profile exposed to</text>
<text x="34" y="503" fill="#64748b" font-family="Arial,sans-serif" font-size="9">all remaining players</text>
<rect width="100" height="14" x="34" y="515" fill="#fef2f2" rx="3"/>
<text x="84" y="525" fill="#ef4444" font-family="Arial,sans-serif" font-size="8" font-weight="600" text-anchor="middle">Role + Faction</text>

<rect width="168" height="105" x="210" y="430" fill="#fff" stroke="#8b5cf6" stroke-width="1.8" filter="url(#b)" rx="10"/>
<rect width="18" height="18" x="220" y="440" fill="#8b5cf6" rx="9"/>
<text x="229" y="453" fill="#fff" font-family="Arial,sans-serif" font-size="10" font-weight="700" text-anchor="middle">2</text>
<text x="244" y="453" fill="#1e293b" font-family="Arial,sans-serif" font-size="11" font-weight="700">Ghost Mode</text>
<text x="222" y="477" fill="#64748b" font-family="Arial,sans-serif" font-size="9">Eliminated player gains</text>
<text x="222" y="490" fill="#64748b" font-family="Arial,sans-serif" font-size="9">omniscient view: ALL hidden</text>
<text x="222" y="503" fill="#64748b" font-family="Arial,sans-serif" font-size="9">roles + real-time AI thoughts</text>
<rect width="100" height="14" x="222" y="515" fill="#f5f3ff" rx="3"/>
<text x="272" y="525" fill="#8b5cf6" font-family="Arial,sans-serif" font-size="8" font-weight="600" text-anchor="middle">All Hidden Info</text>

<rect width="168" height="105" x="398" y="430" fill="#fff" stroke="#312e81" stroke-width="1.8" filter="url(#b)" rx="10"/>
<rect width="18" height="18" x="408" y="440" fill="#312e81" rx="9"/>
<text x="417" y="453" fill="#fff" font-family="Arial,sans-serif" font-size="10" font-weight="700" text-anchor="middle">3</text>
<text x="432" y="453" fill="#1e293b" font-family="Arial,sans-serif" font-size="11" font-weight="700">Night Results</text>
<text x="410" y="477" fill="#64748b" font-family="Arial,sans-serif" font-size="9">Kill / save / protect outcomes.</text>
<text x="410" y="490" fill="#64748b" font-family="Arial,sans-serif" font-size="9">Investigation result shown</text>
<text x="410" y="503" fill="#64748b" font-family="Arial,sans-serif" font-size="9">to Seer only (role-gated)</text>
<rect width="100" height="14" x="410" y="515" fill="#eef2ff" rx="3"/>
<text x="460" y="525" fill="#312e81" font-family="Arial,sans-serif" font-size="8" font-weight="600" text-anchor="middle">Night Actions</text>

<rect width="168" height="105" x="586" y="430" fill="#fff" stroke="#f59e0b" stroke-width="1.8" filter="url(#b)" rx="10"/>
<rect width="18" height="18" x="596" y="440" fill="#f59e0b" rx="9"/>
<text x="605" y="453" fill="#fff" font-family="Arial,sans-serif" font-size="10" font-weight="700" text-anchor="middle">4</text>
<text x="620" y="453" fill="#1e293b" font-family="Arial,sans-serif" font-size="11" font-weight="700">Game End</text>
<text x="598" y="477" fill="#64748b" font-family="Arial,sans-serif" font-size="9">Full scoreboard revealed:</text>
<text x="598" y="490" fill="#64748b" font-family="Arial,sans-serif" font-size="9">all roles, win conditions,</text>
<text x="598" y="503" fill="#64748b" font-family="Arial,sans-serif" font-size="9">key events timeline</text>
<rect width="100" height="14" x="598" y="515" fill="#fffbeb" rx="3"/>
<text x="648" y="525" fill="#d97706" font-family="Arial,sans-serif" font-size="8" font-weight="600" text-anchor="middle">Everything</text>

<rect width="168" height="105" x="774" y="430" fill="#fff" stroke="#14b8a6" stroke-width="1.8" filter="url(#b)" rx="10"/>
<rect width="18" height="18" x="784" y="440" fill="#14b8a6" rx="9"/>
<text x="793" y="453" fill="#fff" font-family="Arial,sans-serif" font-size="10" font-weight="700" text-anchor="middle">5</text>
<text x="808" y="453" fill="#1e293b" font-family="Arial,sans-serif" font-size="11" font-weight="700">ThinkingPanel</text>
<text x="786" y="477" fill="#64748b" font-family="Arial,sans-serif" font-size="9">Player sees AI inner</text>
<text x="786" y="490" fill="#64748b" font-family="Arial,sans-serif" font-size="9">monologue before they</text>
<text x="786" y="503" fill="#64748b" font-family="Arial,sans-serif" font-size="9">speak — real-time stream</text>
<rect width="100" height="14" x="786" y="515" fill="#f0fdfa" rx="3"/>
<text x="836" y="525" fill="#0d9488" font-family="Arial,sans-serif" font-size="8" font-weight="600" text-anchor="middle">AI Monologue</text>

<path d="M 560 156 L 560 380 Q 560 395 520 395 L 106 395 Q 90 395 90 410 L 90 430" stroke="#ef4444" stroke-width="1.2" stroke-dasharray="3,3" fill="none" marker-end="url(#arr-red)" opacity="0.55"/>
<path d="M 640 156 L 640 386 Q 640 400 580 400 L 294 400 Q 280 400 280 414 L 280 430" stroke="#8b5cf6" stroke-width="1.2" stroke-dasharray="3,3" fill="none" marker-end="url(#arr-purple)" opacity="0.55"/>
<path d="M 700 340 L 700 390 Q 700 405 640 405 L 482 405 Q 468 405 468 418 L 468 430" stroke="#312e81" stroke-width="1.2" stroke-dasharray="3,3" fill="none" marker-end="url(#arr-indigo)" opacity="0.55"/>
<path d="M 750 275 L 750 392 Q 750 406 720 406 L 670 406 Q 656 406 656 418 L 656 430" stroke="#f59e0b" stroke-width="1.2" stroke-dasharray="3,3" fill="none" marker-end="url(#arr-amber)" opacity="0.55"/>
<path d="M 800 340 L 800 388 Q 800 402 820 402 L 858 402 Q 858 402 858 418 L 858 430" stroke="#14b8a6" stroke-width="1.2" stroke-dasharray="3,3" fill="none" marker-end="url(#arr-teal)" opacity="0.55"/>

<circle cx="106" cy="468" r="5" fill="#ef4444"/>
<circle cx="294" cy="468" r="5" fill="#8b5cf6"/>
<circle cx="482" cy="468" r="5" fill="#312e81"/>
<circle cx="670" cy="468" r="5" fill="#f59e0b"/>
<circle cx="858" cy="468" r="5" fill="#14b8a6"/>

<line x1="106" y1="463" x2="106" y2="440" stroke="#ef4444" stroke-width="1.5"/>
<line x1="294" y1="463" x2="294" y2="440" stroke="#8b5cf6" stroke-width="1.5"/>
<line x1="482" y1="463" x2="482" y2="440" stroke="#312e81" stroke-width="1.5"/>
<line x1="670" y1="463" x2="670" y2="440" stroke="#f59e0b" stroke-width="1.5"/>
<line x1="858" y1="463" x2="858" y2="440" stroke="#14b8a6" stroke-width="1.5"/>

<text x="45" y="560" fill="#94a3b8" font-family="Arial,sans-serif" font-size="8" font-weight="600" letter-spacing="1">DURING GAME</text>
<line x1="45" y1="563" x2="380" y2="563" stroke="#e2e8f0" stroke-width="1"/>
<text x="580" y="560" fill="#94a3b8" font-family="Arial,sans-serif" font-size="8" font-weight="600" letter-spacing="1">GAME CONCLUSION</text>
<line x1="580" y1="563" x2="755" y2="563" stroke="#e2e8f0" stroke-width="1"/>
<text x="800" y="560" fill="#94a3b8" font-family="Arial,sans-serif" font-size="8" font-weight="600" letter-spacing="1">LIVE</text>
<line x1="800" y1="563" x2="915" y2="563" stroke="#e2e8f0" stroke-width="1"/>

<rect width="890" height="44" x="35" y="580" fill="#f8fafc" stroke="#e2e8f0" rx="8"/>
<text x="55" y="603" fill="#64748b" font-family="Arial,sans-serif" font-size="9" font-weight="600">FLOW:</text>
<rect width="10" height="10" x="92" y="596" fill="#10b981" rx="2"/>
<text x="108" y="605" fill="#475569" font-family="Arial,sans-serif" font-size="9">Always visible</text>
<rect width="10" height="10" x="188" y="596" fill="#ef4444" rx="2"/>
<text x="204" y="605" fill="#475569" font-family="Arial,sans-serif" font-size="9">Hidden until triggered</text>
<path d="M310 601 L340 601" stroke="#94a3b8" stroke-dasharray="3,3" stroke-width="1.2"/>
<text x="348" y="605" fill="#475569" font-family="Arial,sans-serif" font-size="9">Reveals at moment</text>
<text x="500" y="605" fill="#94a3b8" font-family="Arial,sans-serif" font-size="9" font-style="italic">Information asymmetry drives strategic gameplay and dramatic tension</text>

<line x1="35" y1="640" x2="925" y2="640" stroke="#e2e8f0"/>
<text x="480" y="662" fill="#94a3b8" font-family="'Inter','Segoe UI',Arial,sans-serif" font-size="10" text-anchor="middle">COUNCIL — Progressive Disclosure Design · Mistral AI Worldwide Hackathon 2026</text>
</svg>