<svg xmlns="http://www.w3.org/2000/svg" fill="none" viewBox="0 0 960 540"><defs><marker id="c" markerHeight="6" markerWidth="8" orient="auto" refX="8" refY="3"><path fill="#6366f1" d="m0 0 8 3-8 3Z"/></marker><marker id="d" markerHeight="6" markerWidth="8" orient="auto" refX="8" refY="3"><path fill="#f59e0b" d="m0 0 8 3-8 3Z"/></marker><linearGradient id="a" x1="0" x2="960" y1="0" y2="0" gradientUnits="userSpaceOnUse"><stop offset="0%" stop-color="#0f0f0f"/><stop offset="100%" stop-color="#2a2a2a"/></linearGradient><filter id="b" width="108%" height="108%" x="-4%" y="-4%"><feDropShadow dx="0" dy="2" flood-color="#000" flood-opacity=".08" stdDeviation="4"/></filter></defs><rect width="960" height="540" fill="#fff" rx="12"/><rect width="960" height="56" fill="url(#a)" rx="12"/><path fill="url(#a)" d="M0 44h960v12H0z"/><path fill="#fff" d="M394.604 16v24h4.931V16zm9.86 0v24h4.932V16z"/><text x="500" y="36" fill="#fff" font-family="'Inter','Segoe UI',Arial,sans-serif" font-size="17" font-weight="700" letter-spacing="1.5" text-anchor="middle">ELEVENLABS VOICE PIPELINE</text><rect width="880" height="175" x="40" y="75" fill="#eef2ff" stroke="#a5b4fc" filter="url(#b)" rx="10"/><rect width="200" height="20" x="50" y="81" fill="#6366f1" rx="4"/><text x="150" y="95" fill="#fff" font-family="Arial,sans-serif" font-size="10" font-weight="700" text-anchor="middle">SPEECH-TO-TEXT · PLAYER INPUT</text><rect width="130" height="75" x="55" y="115" fill="#fff" stroke="#c7d2fe" stroke-width="1.5" rx="10"/><rect width="16" height="24" x="100" y="124" stroke="#6366f1" stroke-width="2" rx="8"/><path stroke="#6366f1" stroke-width="1.5" d="M93 146q0 14 15 14t15-14m-15 14v7m-8 0h16"/><text x="120" y="178" fill="#1e293b" font-family="Arial,sans-serif" font-size="10" font-weight="600" text-anchor="middle">Microphone</text><path stroke="#6366f1" stroke-width="1.5" marker-end="url(#c)" d="M185 152h33"/><text x="201" y="145" fill="#6366f1" font-family="Arial,sans-serif" font-size="8" text-anchor="middle">PCM</text><rect width="195" height="82" x="218" y="112" fill="#fff" stroke="#6366f1" stroke-width="2" rx="10"/><path fill="#000" d="M230.302 118v12h2.466v-12zm4.93 0v12h2.466v-12z"/><rect width="12" height="12" x="228" y="118" rx="2"/><text x="245" y="127" fill="#1a1a2e" font-family="Arial,sans-serif" font-size="8" font-weight="700">ElevenLabs</text><text x="230" y="150" fill="#1e293b" font-family="Arial,sans-serif" font-size="13" font-weight="700">Scribe API</text><text x="230" y="166" fill="#4338ca" font-family="Arial,sans-serif" font-size="9">Real-time transcription</text><text x="230" y="180" fill="#6366f1" font-family="Arial,sans-serif" font-size="8">WebSocket · Single-use token</text><path stroke="#6366f1" stroke-width="1.5" marker-end="url(#c)" d="M413 152h35"/><text x="430" y="145" fill="#6366f1" font-family="Arial,sans-serif" font-size="8" text-anchor="middle">Text</text><rect width="170" height="75" x="448" y="115" fill="#fff" stroke="#c7d2fe" stroke-dasharray="4,3" stroke-width="1.5" rx="10"/><text x="533" y="140" fill="#94a3b8" font-family="Arial,sans-serif" font-size="9" font-weight="600" text-anchor="middle">FALLBACK</text><text x="533" y="158" fill="#1e293b" font-family="Arial,sans-serif" font-size="11" font-weight="600" text-anchor="middle">Web Speech API</text><text x="533" y="175" fill="#64748b" font-family="Arial,sans-serif" font-size="9" text-anchor="middle">Browser-native STT</text><path stroke="#6366f1" stroke-width="1.5" marker-end="url(#c)" d="M618 152h35"/><rect width="252" height="75" x="653" y="115" fill="#fff" stroke="#c7d2fe" stroke-width="1.5" rx="10"/><text x="779" y="140" fill="#1e293b" font-family="Arial,sans-serif" font-size="12" font-weight="700" text-anchor="middle">Chat Input Field</text><text x="779" y="158" fill="#64748b" font-family="Arial,sans-serif" font-size="10" text-anchor="middle">Partial transcript → committed text</text><text x="779" y="174" fill="#64748b" font-family="Arial,sans-serif" font-size="10" text-anchor="middle">→ Sent as player message to game</text><rect width="80" height="22" x="440" y="255" fill="#f1f5f9" stroke="#e2e8f0" rx="11"/><text x="480" y="270" fill="#94a3b8" font-family="Arial,sans-serif" font-size="9" font-weight="600" text-anchor="middle">GAME</text><rect width="880" height="200" x="40" y="285" fill="#fffbeb" stroke="#fcd34d" filter="url(#b)" rx="10"/><rect width="200" height="20" x="50" y="291" fill="#f59e0b" rx="4"/><text x="150" y="305" fill="#fff" font-family="Arial,sans-serif" font-size="10" font-weight="700" text-anchor="middle">TEXT-TO-SPEECH · AI OUTPUT</text><rect width="150" height="80" x="55" y="325" fill="#fff" stroke="#fde68a" stroke-width="1.5" rx="10"/><text x="130" y="350" fill="#1e293b" font-family="Arial,sans-serif" font-size="12" font-weight="700" text-anchor="middle">AI Response</text><text x="130" y="368" fill="#92400e" font-family="Arial,sans-serif" font-size="9" text-anchor="middle">Character dialogue</text><text x="130" y="383" fill="#92400e" font-family="Arial,sans-serif" font-size="9" text-anchor="middle">+ &lt;emotion&gt; tags</text><text x="130" y="398" fill="#b45309" font-family="Arial,sans-serif" font-size="8" text-anchor="middle">happy · angry · fearful</text><path stroke="#f59e0b" stroke-width="1.5" marker-end="url(#d)" d="M205 365h35"/><rect width="190" height="80" x="240" y="325" fill="#fff" stroke="#f59e0b" stroke-width="2" rx="10"/><path fill="#000" d="M252.302 331v12h2.466v-12zm4.93 0v12h2.466v-12z"/><text x="267" y="340" fill="#1a1a2e" font-family="Arial,sans-serif" font-size="8" font-weight="700">ElevenLabs</text><text x="252" y="363" fill="#1e293b" font-family="Arial,sans-serif" font-size="13" font-weight="700">TTS Streaming</text><text x="252" y="380" fill="#92400e" font-family="Arial,sans-serif" font-size="9">Per-character voice ID</text><text x="252" y="395" fill="#b45309" font-family="Arial,sans-serif" font-size="8">Chunked audio response</text><path stroke="#f59e0b" stroke-width="1.5" marker-end="url(#d)" d="M430 365h35"/><rect width="165" height="80" x="465" y="325" fill="#fff" stroke="#fde68a" stroke-width="1.5" rx="10"/><text x="547" y="350" fill="#1e293b" font-family="Arial,sans-serif" font-size="12" font-weight="700" text-anchor="middle">Voice Queue</text><text x="547" y="368" fill="#92400e" font-family="Arial,sans-serif" font-size="9" text-anchor="middle">Sequential playback</text><text x="547" y="383" fill="#92400e" font-family="Arial,sans-serif" font-size="9" text-anchor="middle">Multi-agent ordering</text><text x="547" y="398" fill="#b45309" font-family="Arial,sans-serif" font-size="8" text-anchor="middle">Blob fallback</text><path stroke="#f59e0b" stroke-width="1.5" marker-end="url(#d)" d="M630 365h35"/><rect width="240" height="80" x="665" y="325" fill="#fff" stroke="#fde68a" stroke-width="1.5" rx="10"/><text x="785" y="348" fill="#1e293b" font-family="Arial,sans-serif" font-size="12" font-weight="700" text-anchor="middle">Audio Ducking</text><text x="785" y="366" fill="#92400e" font-family="Arial,sans-serif" font-size="9" text-anchor="middle">BGM: 0.25 → 0.05 on speech</text><text x="785" y="381" fill="#92400e" font-family="Arial,sans-serif" font-size="9" text-anchor="middle">500ms fade · 20ms step</text><text x="785" y="396" fill="#b45309" font-family="Arial,sans-serif" font-size="8" text-anchor="middle">DUCK_EVENT / UNDUCK_EVENT</text><rect width="35" height="35" x="870" y="410" fill="#f59e0b" rx="17"/><path fill="#fff" d="m884.9 420.5-4.5 3.6h-3.6v5.4h3.6l4.5 3.6z"/><path stroke="#fff" stroke-linecap="round" stroke-width="1.8" d="M892.163 420.437a9 9 0 0 1 0 12.726m-3.177-9.549a4.5 4.5 0 0 1 0 6.363"/><rect width="200" height="24" x="40" y="500" fill="#eef2ff" stroke="#a5b4fc" rx="12"/><path fill="#6366f1" d="M52.302 505v12h2.466v-12zm4.93 0v12h2.466v-12z"/><text x="72" y="516" fill="#4338ca" font-family="Arial,sans-serif" font-size="9" font-weight="600">Scribe: Real-time · Low latency</text><rect width="200" height="24" x="260" y="500" fill="#fffbeb" stroke="#fcd34d" rx="12"/><path fill="#f59e0b" d="M272.302 505v12h2.466v-12zm4.93 0v12h2.466v-12z"/><text x="292" y="516" fill="#92400e" font-family="Arial,sans-serif" font-size="9" font-weight="600">TTS: Per-character voices</text><rect width="220" height="24" x="480" y="500" fill="#f1f5f9" stroke="#e2e8f0" rx="12"/><text x="590" y="516" fill="#475569" font-family="Arial,sans-serif" font-size="9" font-weight="600" text-anchor="middle">Emotion tags → Voice modulation</text><rect width="200" height="24" x="720" y="500" fill="#f1f5f9" stroke="#e2e8f0" rx="12"/><text x="820" y="516" fill="#475569" font-family="Arial,sans-serif" font-size="9" font-weight="600" text-anchor="middle">Smart audio ducking system</text></svg>